<svg id="Layer_1" xmlns="http://www.w3.org/2000/svg" viewBox="0 0 300 300"><style>.st1{fill:#99d9ac}.st2{fill:none;stroke:#00a550;stroke-miterlimit:10}.st4{fill:#00a550}.st5{fill:#007237}.st6{fill:#ededee}.st7{fill:#504b5a}.st8{fill:#dcdbde}.st9{fill:#fff}.st12,.st13{fill:#fff;stroke:#00a550;stroke-miterlimit:10}.st13{fill:#c1e8cc}</style><circle cx="149.7" cy="151.8" r="145" fill="#c1e8cc"/><circle class="st1" cx="82.8" cy="24.8" r="10.8"/><path class="st2" d="M161.2 185.5h128m-160.6-4.8H153"/><ellipse class="st1" cx="244.4" cy="143.1" rx="19" ry="19"/><path class="st2" d="M144.9 156.4h16.4m-14.2 3.2h12m-8.2 3.2h7.7"/><path d="M279.8 155.1c-4.1-2.5-17.4-5.6-36-5.6l-9.8-11.2c-2.1-2.4-5.1-3.7-8.3-3.7h-29.5c-3.1 0-6.2 1.1-8.5 3.1l-11.6 9.7-12.4 1.7c-1.8.2-3.2 1.5-3.6 3.2l-1.5 5.7 32.8 14.9h91.8v-12c-.1-2.4-1.3-4.6-3.4-5.8z" fill="#10b45a" stroke="#00a550" stroke-miterlimit="10"/><path class="st4" d="M283.1 162.2c0-4.3-6.6-8.5-37.2-8.5h-85.2c-1.2 0-2.2 1-2.2 2.1v12.8L200 175h83.1v-12.8z"/><path class="st5" d="M283.1 170.8H180.7l-19.4-4.2c-1.2-.2-2.3.5-2.6 1.6s.5 2.3 1.7 2.5l19.7 4.3c.2 0 .3.1.5.1h102.7c1.2 0 2.2-1 2.2-2.1-.2-1.3-1.2-2.2-2.4-2.2z"/><ellipse class="st6" cx="263.5" cy="170.8" rx="10.9" ry="10.6"/><path class="st7" d="M263.5 183.5c-7.2 0-13.1-5.7-13.1-12.8s5.8-12.7 13.1-12.7c7.2 0 13.1 5.7 13.1 12.8s-5.9 12.7-13.1 12.7zm0-21.3c-4.8 0-8.7 3.8-8.7 8.5s3.9 8.5 8.7 8.5 8.7-3.8 8.7-8.5c0-4.6-3.9-8.5-8.7-8.5z"/><ellipse class="st8" cx="263.5" cy="170.8" rx="4.4" ry="4.3"/><ellipse class="st6" cx="180.4" cy="170.8" rx="10.9" ry="10.6"/><path class="st7" d="M180.4 183.5c-7.2 0-13.1-5.7-13.1-12.8s5.9-12.8 13.1-12.8c7.2 0 13.1 5.7 13.1 12.8s-5.9 12.8-13.1 12.8zm0-21.3c-4.8 0-8.7 3.8-8.7 8.5s3.9 8.5 8.7 8.5 8.7-3.8 8.7-8.5c.1-4.6-3.9-8.5-8.7-8.5z"/><ellipse class="st8" cx="180.4" cy="170.8" rx="4.4" ry="4.3"/><path class="st5" d="M246 166.5h-45.9c-1.2 0-2.2-1-2.2-2.1 0-1.2 1-2.1 2.2-2.1H246c1.2 0 2.2 1 2.2 2.1s-1 2.1-2.2 2.1zm37.1 0h-2.2c-1.2 0-2.2-1-2.2-2.1 0-1.2 1-2.1 2.2-2.1h2.2c1.2 0 2.2 1 2.2 2.1s-1 2.1-2.2 2.1z"/><path class="st4" d="M176 147.4l11.6-9.7c2.4-2 5.4-3.1 8.5-3.1h29.5c3.2 0 6.2 1.4 8.3 3.7l9.8 11.2H192c-1.9 0-3.8-.2-5.7-.5l-10.3-1.6z"/><path class="st9" d="M223.2 138.2c-.8-1-2.1-1.5-3.4-1.5h-20.2c-1.2 0-2.3.4-3.1 1.2l-6.6 6.4c-.6.6-.9 1.3-.9 2.1 0 1.7 1.4 3 3.1 3h38.4c.9 0 1.4-1.1.8-1.7l-8.1-9.5z"/><path fill="#f8f9fb" d="M204.5 149.5h-6.6l4.4-12.8h4.3z"/><path class="st9" d="M234 138.3c-.5-.6-1.1-1.1-1.7-1.6h-3.6c-.9 0-1.4 1.1-.8 1.7l8.1 9.5c.8 1 2.1 1.5 3.4 1.5h4.5l-9.9-11.1z"/><path d="M158.6 155.9v2.1h4.4c1.2 0 2.2-1 2.2-2.1s-1-2.1-2.2-2.1h-2.2c-1.3-.1-2.2.9-2.2 2.1z" fill="#ff6464"/><path class="st2" d="M284.2 168.2h7.7"/><circle class="st1" cx="225.8" cy="268.9" r="11.6"/><path class="st4" d="M160.1 120.3c1.1-.4 2.2-.5 3.3-.5s2.2.1 3.3.5c-1.1.4-2.2.5-3.3.5-1.2 0-2.2-.1-3.3-.5z"/><path class="st4" d="M163.4 115c.1 1.5.3 2.9.3 4.4 0 .7.2 1.5.1 2.2-.1.7-.2 1.5-.4 2.2h-.1c-.3-.7-.4-1.5-.4-2.2-.1-.7.1-1.5.1-2.2.1-1.5.2-2.9.4-4.4z"/><ellipse class="st1" cx="102.8" cy="108.4" rx="18.6" ry="18.2"/><path class="st4" d="M207.8 56.2c1.1-.4 2.2-.5 3.3-.5s2.2.1 3.3.5c-1.1.4-2.2.5-3.3.5-1.2 0-2.3-.1-3.3-.5z"/><path class="st4" d="M211.1 51c.1 1.5.3 2.9.4 4.4 0 .7.2 1.5.1 2.2-.1.7-.2 1.5-.4 2.2h-.1c-.3-.7-.4-1.5-.5-2.2s.1-1.5.1-2.2c0-1.5.1-3 .4-4.4zm-92.2 28c1.1-.4 2.2-.5 3.3-.5 1.1 0 2.2.1 3.3.5-1.1.4-2.2.5-3.3.5s-2.2-.1-3.3-.5z"/><path class="st4" d="M122.2 73.7c.1 1.5.3 2.9.3 4.4 0 .7.2 1.5.1 2.2s-.2 1.5-.4 2.2h-.1c-.3-.7-.4-1.5-.5-2.2s.1-1.5.1-2.2c.1-1.4.2-2.9.5-4.4z"/><path class="st2" d="M26.2 185h20.6"/><path class="st4" d="M256 97.1c.5-.4 1.1-.5 1.6-.5s1.1.1 1.6.5c-.5.4-1.1.5-1.6.5s-1.1-.1-1.6-.5z"/><path class="st4" d="M257.7 94.5c.1.7.3 1.4.4 2.2 0 .4.2.7.1 1.1s-.2.7-.4 1.1h-.1c-.3-.4-.4-.7-.5-1.1s.1-.7.1-1.1c.1-.7.2-1.4.3-2.2h.1zM153.6 43.2c1.1-.4 2.2-.5 3.3-.5s2.2.1 3.3.5c-1.1.4-2.2.5-3.3.5-1.2 0-2.2-.1-3.3-.5z"/><path class="st4" d="M156.9 38c.1 1.5.3 2.9.4 4.4 0 .7.2 1.5.1 2.2s-.2 1.5-.5 2.2h-.1c-.3-.7-.4-1.5-.4-2.2-.1-.7.1-1.5.1-2.2 0-1.5.1-3 .4-4.4zm87.7 87.7c1.1-.4 2.2-.5 3.3-.5s2.2.1 3.3.5c-1.1.4-2.2.5-3.3.5s-2.2-.1-3.3-.5z"/><path class="st4" d="M247.9 120.4c.1 1.5.3 2.9.4 4.4 0 .7.2 1.5.1 2.2-.1.7-.2 1.5-.4 2.2h-.1c-.3-.7-.4-1.5-.5-2.2s.1-1.5.1-2.2c.1-1.4.2-2.9.4-4.4z"/><circle class="st1" cx="184.6" cy="82.4" r="19.4"/><path class="st12" d="M203.4 80.3c-7 0-12.7 5.7-12.7 12.7 0 1.8.4 3.6 1.1 5.2 3.2 6.9 9.2 14.2 11 16.3.1.2.3.2.5.2s.4-.1.5-.2c1.8-2.1 7.8-9.4 11-16.3.7-1.6 1.1-3.3 1.1-5.2.2-7-5.5-12.7-12.5-12.7zm0 17.8c-2.8 0-5.1-2.3-5.1-5.1s2.3-5.1 5.1-5.1 5.1 2.3 5.1 5.1-2.3 5.1-5.1 5.1z"/><path transform="matrix(.00947 -1 1 .00947 -133.272 309.725)" class="st13" d="M74.2 188.3h31v67.6h-31z"/><circle class="st9" cx="110.5" cy="223.2" r="7"/><path class="st13" d="M79.3 104.4c3.5-1.5 6-4.9 6-9 .1-5.4-4.3-9.9-9.8-10-4 0-7.5 2.4-9.1 5.8l12.9 13.2z"/><path class="st13" d="M93.2 118.6c3.5-1.5 6-4.9 6-9 .1-5.4-4.3-9.9-9.8-10-4 0-7.5 2.4-9.1 5.8l12.9 13.2z"/><path class="st13" d="M107.2 132.8c3.5-1.5 6-4.9 6-9 .1-5.4-4.3-9.9-9.8-10-4 0-7.5 2.4-9.1 5.8l12.9 13.2z"/><path class="st13" d="M121.1 147c3.5-1.5 6-4.9 6-9 .1-5.4-4.3-9.9-9.8-10-4 0-7.5 2.4-9.1 5.8l12.9 13.2zm-57.6 20l-28.2-.3c-5.4-.1-9.8-4.5-9.8-10 .1-5.4 4.5-9.8 10-9.8l28.2.3c5.4.1 9.8 4.5 9.8 10-.1 5.5-4.6 9.9-10 9.8z"/><path class="st13" d="M121.6 163.5l-31.6 31a6.37 6.37 0 0 1-9.1-.1l-27-27.5-18.6-.2c-1.6.8-6.1-2.1-4.4-.7l30.2 30.6c.2.2.4.4.7.6l-.1 9.2 56.3.5.1-12.7c5.2-3.8 8.5-9.9 8.6-16.8.1-5.2-1.8-10.1-5.1-13.9z"/><path class="st12" d="M57.8 82l-44 43.4L34.9 147c.4 0 .7-.1 1-.1l28 .3c5.4.1 9.8 4.5 9.7 10-.1 5.4-4.5 9.8-9.9 9.8l-9.6-.1 17.7 18 44-43.4-58-59.5zm-.3 0l-6.2-6.3c-2.5-2.5-6.6-2.6-9.1-.1L7.2 110c-2.5 2.5-2.6 6.6-.1 9.1l6.2 6.3L57.5 82z"/><path class="st12" d="M125.1 151.1l-9.3-9.5L71.6 185l9.3 9.5c2.5 2.5 6.6 2.6 9.1.1l35-34.4c2.6-2.5 2.6-6.6.1-9.1z"/><circle cx="100.1" cy="168.8" r="5.6" fill="#fff" stroke="#6e6e6e" stroke-miterlimit="10"/><path d="M28.8 104.7c-.7 0-1.4-.3-2-.8-1.1-1.1-1.1-2.9 0-4l5.7-5.6c1.1-1.1 2.9-1.1 4 0s1.1 2.9 0 4l-5.7 5.6c-.5.6-1.3.8-2 .8z" fill="#424a60"/><path class="st2" d="M115.6 237.9l-.3 37.7M61 236.5l-.5 18.5"/></svg>