<svg id="Layer_1" xmlns="http://www.w3.org/2000/svg" viewBox="0 0 300 300"><style>.st0{fill:#c1e8cc}.st1{fill:#99d9ac}.st2{fill:#00a550}.st3{fill:#c1e8cc;stroke:#00a550;stroke-miterlimit:10}.st4,.st5{fill:#fff}.st5{stroke:#00a550;stroke-miterlimit:10}.st7{fill:#007237}.st8{fill:#ededee}.st9{fill:#504b5a}.st10{fill:#dcdbde}</style><circle class="st0" cx="149.7" cy="150.4" r="145"/><circle class="st1" cx="22.1" cy="84.9" r="10.4"/><circle class="st1" cx="228.5" cy="269.3" r="19.6"/><path class="st2" d="M141.9 36c1.2-.4 2.3-.5 3.5-.5 1.2 0 2.3.1 3.5.5-1.2.4-2.3.5-3.5.5-1.1 0-2.3-.1-3.5-.5z"/><path class="st2" d="M145.5 30.4c.1 1.6.3 3.1.3 4.7 0 .8.2 1.6.1 2.3-.1.8-.2 1.6-.4 2.3h-.1c-.3-.8-.4-1.6-.4-2.3-.1-.8.1-1.6.1-2.3.1-1.6.2-3.1.4-4.7z"/><path class="st3" d="M150.5 53.7s-5.2 9.9-14 18.7c-4.9 5-8.9 10.8-11.7 17.2-.7 1.6-1.4 3.1-1.9 4.4-2.5 5.7-1.9 11.6-6.4 10.2-4.6-1.5-2-11.5 1.7-18.5s-1.1-18.4-1.1-18.4l33.4-13.6z"/><path class="st3" d="M134.1 66s-13 13.7-24 9.4l-8.4 6s2 16.2-4.2 17.4c-2.6.6-1.3-3.7-1.4-18.8 0 0 5.2-11 18.6-19l19.4 5z"/><path class="st3" d="M195.8 26.2l-46.2 10.2c-1.1.2-2.2.4-3.4.5-2.4.2-4.9 1-7.1 2.3-10.4 5.8-36.1 21.1-38.7 23.6-1.3 1.3-.7 19.1-.2 23.9.1.9.4 1.6.8 2.3 2.3 3.3 9.8 13.9 11.1 13.8 1.6-.1 5.5-3.4-4.9-18.8l5.7-12.3 6.7 1.4s19-.6 26-18.6l56-20.8-5.8-7.5z"/><path class="st4" d="M148.9 66.9l-14.6-27.2 40-26.3 24.8 11.5-12.4 19.9z"/><path class="st5" d="M105.6 134.2c.1.4-.1.7-.4 1-.3.2-.4.6-.4 1l.7 4.4v.2l-.5 3.8c0 .2 0 .3.1.5l1.6 3.2c.1.2.1.3.1.5l-.5 2.9v.4l1.7 4.2c.1.2.1.4 0 .5l-2.1 3.8c-.2.4-.7.4-1 .2l-3.2-3c-.1-.1-.2-.3-.2-.5l.3-4.5c0-.2 0-.3-.1-.4l-1.4-2.6c-.1-.2-.1-.3-.1-.5l.5-3.6c0-.2 0-.3-.1-.5l-1.7-3.4c0-.1-.1-.2-.1-.2l-.7-4.4c-.1-.4-.3-.7-.6-.8-.3-.1-.6-.5-.6-.8l-1.5-9.1 8.5-1.4 1.7 9.1z"/><path class="st5" d="M95.6 126.5l1.5 9.1c.1.4.3.7.6.8s.6.5.6.8l.7 4.4c0 .1 0 .2.1.2l1.7 3.4c.1.1.1.3.1.5l-.5 3.6c0 .2 0 .4.1.5l1.4 2.6c.1.1.1.3.1.4l-.3 4.5c0 .2.1.4.2.5l3.2 3h.6l-5.4-35.2-4.7.9z"/><path class="st5" d="M102 99.5l-12.5 2c-3.4.5-5.5 3.9-4.5 7.2l4.7 15.9c.8 2.7 3.5 4.5 6.4 4l8.3-1.3c2.8-.5 4.9-2.9 4.8-5.8l-.5-16.6c-.3-3.4-3.3-5.9-6.7-5.4zm2 6.5c.2 1-.5 2-1.5 2.1l-10.7 1.7c-1 .2-2-.5-2.1-1.5-.2-1 .5-2 1.5-2.1l10.7-1.7c1-.2 1.9.5 2.1 1.5z"/><path class="st2" d="M133.5 111.4L126 107c-1.5-.9-3.4-.6-4.6.7l-5.7 6.5c-1.3 1.5-1.8 3.4-1.5 5.3l3.4 21.3c.3 1.6 1.8 2.8 3.4 2.5l16.4-2.6c1.6-.3 2.8-1.8 2.5-3.4l-3.4-21.3c-.2-2-1.3-3.7-3-4.6zm-8.6 2.6c-1.1.2-2.2-.6-2.4-1.7-.2-1.1.6-2.2 1.7-2.4 1.1-.2 2.2.6 2.4 1.7.2 1.2-.6 2.3-1.7 2.4z"/><path class="st0" d="M133.8 122.8l-.6-3.9c-.2-1.3-1.5-2.2-2.8-2l-9.9 1.6c-1.3.2-2.2 1.5-2 2.8l.6 3.9c.2 1.3 1.5 2.2 2.8 2l9.9-1.6c1.3-.3 2.2-1.5 2-2.8z"/><path class="st2" d="M104.1 109.7c-2.1-1.5-3.1-3.3-2.8-4.9.4-1.6 2-2.7 4.6-3.2 2.3-.4 5.3-.3 8.2.4 3 .7 5.7 1.8 7.6 3.2 2.1 1.5 3.1 3.3 2.8 4.9-.4 1.6-2 2.7-4.6 3.2-2.3.4-5.3.3-8.2-.4-3-.6-5.7-1.8-7.6-3.2zm9.6-6c-2.8-.6-5.4-.7-7.5-.3-1.8.3-3 1-3.2 1.9s.6 2 2.1 3.1c1.7 1.3 4.2 2.3 7 2.9 2.8.6 5.4.7 7.5.3 1.8-.3 3-1 3.2-1.9.2-.8-.6-2-2.1-3.1-1.7-1.2-4.2-2.3-7-2.9zm9.9 6.2z"/><path class="st2" d="M126.6 111.7c.1.8-.3 1.7-1 2.1l8.5-1.4-.1-.7c-.2-.1-.3-.2-.5-.3L126 107c-1.5-.9-3.4-.6-4.6.7l-3.8 4.4c.9 0 1.7-.1 2.4-.2 1.2-.2 2.2-.6 2.8-1.1.3-.4.8-.7 1.3-.8 1.2-.2 2.3.5 2.5 1.7z"/><path class="st3" d="M179.6 9L139 35.1l17.9 29.5 63.3-40.5"/><path class="st4" d="M161.6 54.9c.7.4 1 1.4.5 2.1-.4.7-1.4 1-2.1.5-.7-.4-1-1.4-.5-2.1.5-.7 1.4-1 2.1-.5z"/><ellipse transform="rotate(-83.886 165.334 53.769)" class="st4" cx="165.3" cy="53.8" rx="1.5" ry="1.5"/><ellipse transform="matrix(1 -.00449 .00449 1 -.782 .944)" class="st1" cx="209.9" cy="174.8" rx="35.5" ry="24.9"/><path class="st1" d="M152.5 148.8c20.5-.1 46.8 12.8 46.9 33 .1 20.2-20.9 36.5-41.4 36.6-20.5.1-32.7-16-32.8-36.3-.1-20.2 6.8-33.2 27.3-33.3z"/><path d="M271.4 182.6c-3.8-2.3-16.1-5.2-33.3-5.2l-9.1-10.2c-1.9-2.2-4.7-3.4-7.7-3.4H194c-2.9 0-5.7 1-7.9 2.8l-10.7 8.9-11.5 1.6c-1.6.2-3 1.4-3.4 2.9l-1.4 5.3 30.3 13.6h84.9v-11c.2-2.2-1-4.2-2.9-5.3z" fill="#10b45a" stroke="#00a550" stroke-miterlimit="10"/><path class="st2" d="M274.5 189.1c0-3.9-6.1-7.8-34.4-7.8h-78.9c-1.1 0-2 .9-2 1.9V195l38.4 5.8h76.8l.1-11.7z"/><path class="st7" d="M274.5 196.9h-94.8l-18-3.9c-1.1-.2-2.2.4-2.4 1.5-.2 1.1.4 2.1 1.5 2.3l18.2 3.9h95.4c1.1 0 2-.9 2-1.9.1-1-.8-1.9-1.9-1.9z"/><ellipse class="st8" cx="256.3" cy="196.9" rx="10.1" ry="9.7"/><path class="st9" d="M256.3 208.6c-6.7 0-12.1-5.2-12.1-11.7s5.4-11.7 12.1-11.7c6.7 0 12.1 5.2 12.1 11.7s-5.4 11.7-12.1 11.7zm0-19.5c-4.5 0-8.1 3.5-8.1 7.8s3.6 7.8 8.1 7.8 8.1-3.5 8.1-7.8-3.6-7.8-8.1-7.8z"/><ellipse class="st10" cx="256.3" cy="196.9" rx="4" ry="3.9"/><ellipse class="st8" cx="179.5" cy="196.9" rx="10.1" ry="9.7"/><path class="st9" d="M179.5 208.6c-6.7 0-12.1-5.2-12.1-11.7s5.4-11.7 12.1-11.7 12.1 5.2 12.1 11.7c0 6.5-5.5 11.7-12.1 11.7zm0-19.5c-4.5 0-8.1 3.5-8.1 7.8s3.6 7.8 8.1 7.8 8.1-3.5 8.1-7.8c-.1-4.3-3.7-7.8-8.1-7.8z"/><ellipse class="st10" cx="179.5" cy="196.9" rx="4" ry="3.9"/><path class="st7" d="M240.1 193h-42.5c-1.1 0-2-.9-2-1.9 0-1.1.9-1.9 2-1.9h42.5c1.1 0 2 .9 2 1.9 0 1.1-.9 1.9-2 1.9zm34.4 0h-2c-1.1 0-2-.9-2-1.9 0-1.1.9-1.9 2-1.9h2c1.1 0 2 .9 2 1.9 0 1.1-.9 1.9-2 1.9z"/><path class="st2" d="M175.4 175.5l10.7-8.9c2.2-1.8 5-2.8 7.9-2.8h27.3c3 0 5.8 1.2 7.7 3.4l9.1 10.2h-47.9c-1.8 0-3.6-.1-5.3-.4l-9.5-1.5z"/><path class="st4" d="M219.1 167.1a4.1 4.1 0 0 0-3.1-1.4h-18.7c-1.1 0-2.1.4-2.9 1.1l-6.1 5.8c-.5.5-.8 1.2-.8 1.9 0 1.5 1.3 2.8 2.9 2.8h35.4c.9 0 1.3-1 .8-1.6l-7.5-8.6z"/><path fill="#f8f9fb" d="M201.7 177.4h-6.1l4.1-11.7h4z"/><path class="st4" d="M229 167.2c-.5-.5-1-1-1.6-1.5h-3.3c-.9 0-1.3 1-.8 1.6l7.5 8.7c.8.9 1.9 1.4 3.1 1.4h4.2l-9.1-10.2z"/><path d="M159.2 183.3v1.9h4c1.1 0 2-.9 2-1.9s-.9-1.9-2-1.9h-2c-1.1-.1-2 .8-2 1.9z" fill="#ff6464"/><path d="M157.4 210l120.3 1m-158.1-41.8h24.1m-6.4-7.7h13.6" fill="none" stroke="#00a550" stroke-miterlimit="10"/><path class="st3" d="M24.8 190.3l7.9 14.7 51-23.3s10.2 13.8 10.8 13.8c.6 0 30.4-.5 30.4-.5l22-12.4s-4.3-5.2-21.8 6.3c0 0-2.5-.4-6-.7 1.6-.4 3.5-1.6 4.1-3 2.2-5.3-13.6-4.9-13.6-4.9C96.8 178 93.4 167.9 82 170c-3.4.6-57.2 20.3-57.2 20.3z"/><path class="st3" d="M150.5 179.8c-2.8-1.9-9.9-2.5-21.7 8.4 0 0-10.1-1.1-18.9 4.1 0 0-25.5-23.2-31.9-23.3-6.3-.1-56.7 20.2-56.7 20.2l9.5 14.6 5.3 8.2 37.6-24.8s25.8 16.4 29.4 18.6c4.7 2.9 18-7.9 27-10 3.1-.7 16.2-10.3 20.4-13.4.9-.6.9-2 0-2.6z"/><path class="st4" d="M75.1 201.5l-5.3-30.3-46.5 6.7 1.6 16.3 13.3 14.4z"/><path class="st4" d="M75.1 201.5l-10-29.6-40.2 25.5 13.3 11.2z"/><path class="st3" d="M8 181.8l58.2-11 5.9 33.8-51.4 12"/><path class="st4" d="M62 199.7c-.3 1.2.3 2.5 1.4 2.9 1.1.4 2.3-.2 2.6-1.4.3-1.2-.3-2.5-1.4-2.9-1.1-.3-2.2.3-2.6 1.4zm-6.7 1.6c-.3 1.2.3 2.5 1.4 2.9s2.3-.2 2.6-1.4-.3-2.5-1.4-2.9c-1.1-.4-2.2.2-2.6 1.4z"/><path class="st2" d="M190.7 60c1.2-.1 2.3-.3 3.5-.4.6 0 1.2-.2 1.7-.1.6.1 1.2.2 1.7.5v.1c-.6.3-1.2.4-1.7.5-.6.1-1.2-.1-1.7-.1-1.2-.1-2.4-.3-3.5-.5zm-152 56.8c1.2-.1 2.3-.3 3.5-.3.6 0 1.2-.2 1.7-.1.6.1 1.2.2 1.7.5v.1c-.6.3-1.2.4-1.7.4-.6.1-1.2-.1-1.7-.1-1.2-.1-2.3-.2-3.5-.5zm11.6-39.4c1.2-.4 2.3-.5 3.5-.5 1.2 0 2.3.1 3.5.5-1.2.4-2.3.5-3.5.5-1.2 0-2.3-.1-3.5-.5zm18.6 20.9c1.2-.1 2.3-.3 3.5-.4.6 0 1.2-.2 1.7-.1.6.1 1.2.2 1.7.5v.1c-.6.3-1.2.4-1.7.4-.6.1-1.2-.1-1.7-.1-1.2-.1-2.4-.2-3.5-.4zm54.5 18.5c1.2-.1 2.3-.3 3.5-.3.6 0 1.2-.2 1.7-.1.6.1 1.2.2 1.7.5v.1c-.6.3-1.2.4-1.7.4-.6.1-1.2-.1-1.7-.1-1.2-.1-2.4-.2-3.5-.5z"/><circle class="st1" cx="187.9" cy="93" r="17.3"/><path class="st2" d="M195.3 118c1.2-.1 2.3-.3 3.5-.3.6 0 1.2-.2 1.7-.1.6.1 1.2.2 1.7.4v.1c-.6.3-1.2.4-1.7.4-.6.1-1.2-.1-1.7-.1-1.2-.1-2.3-.2-3.5-.3v-.1zm33.6 11.6c1.2-.1 2.3-.3 3.5-.4.6 0 1.2-.2 1.7-.1.6.1 1.2.2 1.7.4v.1c-.6.3-1.2.4-1.7.4-.6.1-1.2-.1-1.7-.1-1.2-.1-2.3-.2-3.5-.4v.1zm20.9-41c1.2-.1 2.3-.3 3.5-.3.6 0 1.2-.2 1.7-.1.6.1 1.2.2 1.7.4v.1c-.6.3-1.2.4-1.7.5-.6.1-1.2-.1-1.7-.1-1.2-.2-2.3-.3-3.5-.5zm-73.1-.8c1.2-.1 2.3-.3 3.5-.3.6 0 1.2-.2 1.7-.1.6.1 1.2.2 1.7.5v.1c-.6.3-1.2.4-1.7.4-.6.1-1.2-.1-1.7-.1-1.1-.1-2.3-.2-3.5-.5zm-24.3 38.3c1.2-.1 2.3-.3 3.5-.3.6 0 1.2-.2 1.7-.1.6.1 1.2.2 1.7.4v.1c-.6.3-1.2.4-1.7.5-.6.1-1.2-.1-1.7-.1-1.2-.1-2.4-.2-3.5-.5zm66.1-46.4c1.2-.1 2.3-.3 3.5-.3.6 0 1.2-.2 1.7-.1.6.1 1.2.2 1.7.4v.1c-.6.3-1.2.4-1.7.5-.6.1-1.2-.1-1.7-.1-1.2-.1-2.3-.2-3.5-.5zm-41.3 173.5l-5.1 6.9-4.4-6.9 4.4-7zM95.7 230l-2.5 3.5L91 230l2.2-3.5z"/></svg>