<svg id="Layer_1" xmlns="http://www.w3.org/2000/svg" viewBox="0 0 300 300"><style>.st1{fill:none;stroke:#00a550;stroke-miterlimit:10}.st2{fill:#fff}.st4{fill:#99d9ac}.st5{fill:#10b45a;stroke:#00a550;stroke-miterlimit:10}.st6{fill:#00a550}.st7{fill:#007237}.st8{fill:#ededee}.st9{fill:#504b5a}.st10{fill:#dcdbde}.st11{fill:#f8f9fb}.st12{fill:#ff6464}</style><circle cx="150" cy="150.4" r="145" fill="#c1e8cc"/><path class="st1" d="M23.6 219.5s15.5-7.4 31-9.6c16.5-2.4 33.3.4 44.3 0 30-1.2 99.1 1.4 128.6 0 2.5-.1 22.7 1.8 36.7-1.4 14.4-3.3 18.6 0 18.6 0"/><path class="st2" d="M266.5 125.5c-2.2 12.8-2.2 25.8-3 38.8-.8 13.8-1.4 27.6.3 41.3.2 1.3 2.5 1.1 2.3-.3-1.2-12.6-.9-25-.2-37.6.7-14 .7-28 2.7-41.9 0-1.1-1.9-1.4-2.1-.3z"/><path class="st2" d="M267.1 139.7c5.3-8.8 14.6-11.3 24.5-9.4 1.5.3 2.1-1.7.7-2.2-10.4-3.7-21.5 1.5-26.9 10.5-.7 1.1 1 2.2 1.7 1.1z"/><path class="st2" d="M293.4 118c-4.2-2.2-11.4 1.2-15.3 3-5.9 2.7-10.7 7.9-12.6 14-.4 1.4 1.7 2 2.2.6 1.9-5.3 5.4-9 10.2-11.9 3.1-1.9 10.9-5.1 14.7-4 1 .4 1.8-1.1.8-1.7z"/><path class="st2" d="M267.4 135.5c2.4-11.6 5.5-21.5 15.5-28.7 1.3-.9.2-3-1.2-2.2-11 5.8-14.3 19-16.4 30.2-.4 1.5 1.8 2.1 2.1.7z"/><path class="st2" d="M268.4 135c3.5-9.3-3.8-25.3-13.4-28.4-1.5-.5-2.2 1.5-1.1 2.4 7.4 5.2 15.2 15.8 12.4 25.4-.4 1.3 1.6 1.8 2.1.6z"/><path class="st2" d="M268.2 136.5c-.3-4.9-3.1-8.9-6.5-12.3-3.2-3.3-8-7.2-12.8-7.8-1.1-.1-1.6 1.6-.6 2.1 7.4 3.7 16.6 9.1 17.9 18.3.1 1.1 2.1.8 2-.3z"/><path class="st2" d="M266.9 135.4c-4.6-7.2-20.8-8.5-26.7-2.4-.8.8-.1 2.4 1.2 2.1 7.8-2.2 17.2-5.3 23.8 1.6.8.9 2.4-.2 1.7-1.3zm12-27.2c.9 1.1 1.9 2.3 3 3.3 1.2 1 2.7-.4 1.7-1.7-.9-1.2-2-2.7-3.4-3.3-1-.5-2.1.7-1.3 1.7zm-1.5 2.3c1 1.3 1.9 2.8 3.2 3.9.9.8 2.7-.2 1.9-1.4-1-1.4-2.4-2.7-3.6-3.9-1-.9-2.3.4-1.5 1.4zm-2.3 3.9c.7 1.3 2 2.9 3.5 3.3.9.3 1.8-.7 1.3-1.6-.7-1.1-2-1.7-2.8-2.8-.8-1.3-2.7-.2-2 1.1zm-3.5 3.3c.8 1.1 1.6 2.2 2.5 3.2 1.1 1.1 2.6-.4 1.7-1.6-.8-1.1-1.8-2.1-2.7-3.1-.9-1.1-2.3.4-1.5 1.5zm-1.3 6.1c.6.9 1 1.8 1.6 2.6.7.8 2.2 0 1.9-1-.3-1-.9-1.9-1.5-2.7-.8-1.2-2.8-.2-2 1.1z"/><path class="st2" d="M278.4 104.7c-2.5.5-5.3.7-7.7 1.7-1 .4-.6 2.2.5 2.1 2.5-.1 5.4-.7 7.7-1.5 1.5-.6 1-2.6-.5-2.3zm-2.1 4.4c-2.3.1-4.6-.8-6.7.4-1.1.6-.4 2.1.8 1.9 2.1-.4 4.1 0 6.2-.3 1.1-.1.8-2-.3-2zm-2.7 4.5c-1.5-.2-2.9-.2-4.4 0-1.2.2-1 2.2.2 2.2 1.3 0 2.5-.2 3.8 0 1.4.1 1.7-2 .4-2.2zm-4.5 3.2c-.5.2-.8.5-1.1 1-.7 1 .8 2.2 1.7 1.4.1-.1.2-.2.3-.2 1.5-.6.6-2.8-.9-2.2zm23 1.2c-1.1-1.4-1.6-3.3-3.4-3.9-1-.4-1.8 1.1-1.1 1.8 1 1.1 1.7 2.4 2.7 3.5.8 1 2.6-.3 1.8-1.4z"/><path class="st2" d="M289.9 117.6c-2.2-.5-4.4-1.3-6.7-1.2-1.4.1-1.4 2 0 2.2 2.2.3 4.3.8 6.4 1.1 1.2.2 1.5-1.8.3-2.1z"/><path class="st2" d="M285.6 118.5c-1.9-.7-3.8-1.6-5.9-1.4-1.3.1-1.5 2.1 0 2.1 1.9 0 3.6.6 5.3 1.3 1.3.5 1.8-1.5.6-2zm3.1-.1c.2 1 .2 1.9.3 3 .1 1.3 1.7 1.6 2.2.3.6-1.4.1-3.2-.8-4.3-.7-.8-2 .1-1.7 1z"/><path class="st2" d="M285.4 120.4c.4.8.3 1.6.6 2.3.4 1 1.7 1.1 2.1 0 .5-1.3-.2-2.7-1-3.7-.7-.9-2.3.4-1.7 1.4z"/><path class="st2" d="M283 121.2c.1.5-.1 1.1-.1 1.6-.2 1.3 1.6 1.5 2.2.7.6-.9.7-1.9.4-2.9-.5-1.7-2.9-1-2.5.6zm-3.1 1.1c-.1.3-.1.6-.3 1-.3 1 1.1 2 1.8 1.1.4-.5.6-.8.7-1.4.4-1.5-1.9-2.2-2.2-.7zm-1.6-.7c-.4-.9-1.5-1.2-2.3-1.4-1.1-.3-2.4-.3-3.4.3-1.1.6-.4 2.4.8 2.1.6-.1 1.1-.2 1.7-.1.3 0 .6.1.8.2.1 0 .4.3.4.1.7 1.2 2.6.1 2-1.2z"/><path class="st2" d="M274.3 121.4c-1.6.3-3.5.9-3.9 2.7-.2 1.1 1 1.9 1.8 1.1.8-.7 1.7-1.1 2.7-1.4 1.6-.4 1-2.7-.6-2.4zm2 3.5c-1.3-.2-2.9-.2-4 .6-.8.6-.2 1.9.7 1.9 1 0 1.9-.4 2.9-.3 1.3.3 1.7-2 .4-2.2zm12.3 4.2c0 1.2-.1 2.3-.2 3.4-.1 1.3 1.9 1.6 2.2.3.3-1.2.3-2.5.3-3.7 0-1.5-2.3-1.5-2.3 0zm-2.8.2c-.6.9-1.1 1.8-1.6 2.7-.6 1.1.9 2.5 1.8 1.5.8-.9 1.3-1.9 1.8-2.9.6-1.4-1.2-2.6-2-1.3z"/><path class="st2" d="M283.6 130c-.5.7-1 1.4-1.4 2.1-.7 1.3 1 2.3 1.9 1.2.5-.7.9-1.4 1.4-2.1.7-1.3-1.2-2.4-1.9-1.2zm-2.3-1.9c-1.6 1.8-3.3 3.7-4.3 5.8-.5 1.1.8 2.4 1.7 1.4 1.7-1.7 2.9-3.9 4.3-5.8.9-1-.8-2.3-1.7-1.4z"/><path class="st2" d="M276.7 131.2c-1.2 1.6-2.2 3.2-3 5.1-.5 1.2 1.5 2.1 2.1 1 .9-1.6 1.7-3.3 2.8-4.8.9-1.3-1.1-2.4-1.9-1.3zm-4.2 1.6c-.7.9-1.2 1.9-1.7 3-.4 1-1 2.1-1.2 3.1-.3 1.4 1.4 2.1 2.2 1 .6-.8.8-1.8 1.2-2.7.4-1.1.9-2.2 1.5-3.2.9-1.3-1.1-2.4-2-1.2z"/><path class="st2" d="M270.6 133.6c-1.9 2.1-3.5 4.9-4.1 7.6-.3 1.3 1.4 2.1 2.2 1 1.5-2.2 2-5 3.7-7.2.7-1-1-2.4-1.8-1.4zm-6.9.2c-1.2 1.5-2.4 3.4-2.9 5.2-.3 1.1 1.1 2 1.9 1.2 1.4-1.4 2.2-3.4 3-5.2.4-1.1-1.3-2.1-2-1.2z"/><path class="st2" d="M262.2 133.4c-1.6.9-2.9 2.5-4 4-.7 1 .6 2.3 1.6 1.7 1.6-1 2.2-2.9 3.6-4 1-.7-.2-2.2-1.2-1.7zm-2.7-2c-2.4 1.3-3.9 4-5.4 6.1-.7 1 .6 2.5 1.7 1.7 2.2-1.6 2.9-4.3 5-6.1 1.1-.7-.2-2.3-1.3-1.7zm-5 .9c-2.4.3-3.4 2.8-4.6 4.5-.8 1.2.9 2.5 1.9 1.5 1.2-1.2 1.7-3.1 3.2-3.9.9-.5.6-2.3-.5-2.1zm-4.3-1.4c-1.7 1.7-2.8 3.9-3.7 6.1-.5 1.4 1.6 2.2 2.3 1 1.1-1.7 1.8-3.7 3.1-5.4 1-1.1-.6-2.8-1.7-1.7zm-5.1 3c-1.3.9-2.6 2.1-3 3.6-.2 1 1.1 2.1 1.9 1.1.8-1 1.5-2 2.6-2.8 1.1-.7-.4-2.7-1.5-1.9zm17.3-6.2c-.1 1.3-.7 2.4-.9 3.7-.2 1.2 1.2 1.9 2 .9 1-1.3 1.2-3.3.9-4.8-.2-1.3-1.9-.9-2 .2zm-1.7-3.1c-.6 1.2-1.6 2.1-2.2 3.3-.6 1.1.7 2.1 1.7 1.4 1.2-.9 2-2.4 2.6-3.7.5-1.3-1.5-2.1-2.1-1z"/><path class="st2" d="M259.3 122.8c-1.6.4-3 1.7-3.9 3-.6.9.5 2.1 1.5 1.5 1.2-.8 1.9-2 3.3-2.6 1-.4.3-2.2-.9-1.9zm-4.3-2c-.9.3-1.7.8-2.3 1.5-.9.9.2 2.3 1.3 1.8.7-.3 1.2-.8 1.9-1.1 1.2-.5.3-2.6-.9-2.2zm-4.3-2.1c-1.4.2-2.5.9-3.3 2.1-.8 1.1.8 2.2 1.8 1.4.6-.5 1.3-1 2.1-1.2 1.5-.4.9-2.5-.6-2.3zm-4.8-.5c-.4.2-.7.4-.9.8-.5 1.1.7 2.1 1.6 1.3.1 0 .3-.1.4-.2 1.3-.6.2-2.6-1.1-1.9z"/><path class="st2" d="M250.1 119.6c2-1.2 3.8-2.8 5.6-4.2 1-.8-.2-2.3-1.3-1.8-2 1-4 2.6-5.6 4.2-.9.9.2 2.4 1.3 1.8zm6.3-1c-.3-.2-.1 0-.4.4-.2.3-.4.5-.5.8-.8 1.2.8 2.2 1.8 1.5.8-.6 1.6-1.3 2.4-1.9-.5-.5-1-1.1-1.6-1.6-1.2 2.3.3 4.1 2.7 3.9-.4-.5-.7-1-1.1-1.5-.3 1.9-.4 3.6 1.2 4.8 1.2.9 2.4-.9 1.5-1.9-.7-.8-.6-1.6-.5-2.6.1-.6-.6-1.2-1.1-1.2-.3 0-.6.1-1 0-.2 0 0-.1.1-.4.5-1-.5-2.2-1.6-1.6-1 .6-1.8 1.3-2.7 2l1.6 1.6c1-1.3 1.9-3.3.1-4.3-1-.7-2 1.1-.9 2z"/><path class="st2" d="M262.2 123.9c.3 1.5.8 3 1.8 4.2.9 1 2.3-.2 1.8-1.3-.6-1.1-1.1-2.2-1.4-3.5-.4-1.3-2.5-.8-2.2.6zm3.6-4c-.4.1-.8-.1-1.2-.3-.9-.4-1.8.8-1.3 1.6.7 1 1.8 1.2 3 .9 1.5-.4.9-2.5-.5-2.2zm-3.2-3.7c-.4.2-.5.3-.1.3-.2 0-.5-.1-.7-.2-.2.8-.5 1.6-.7 2.5.4.1.7.1 1.1-.1.7-.5.8-1.3.3-2-.3-.4-1-.6-1.4-.9-.4-.3-.9-.9-1.5-.9-.7.1-1.4.7-1.1 1.4.7-.3 1.4-.6 2.1-.8-.5-.9-1.3-1.5-1.7-2.5-.4-.8-1.2-1-2.1-1.1.4.5.7 1 1.1 1.5.1-.4.2-.7.2-1.1.1-1-1.3-1.3-1.8-.5-.2.2-.3.4-.4.7-.4.8 0 1.6.9 1.7.2 0 .4.7.6.9.4.6 1 1.2 1.4 1.8.9 1 2.5-.2 1.8-1.4-.2.6-.5 1.1-.7 1.7-.6.2-1-.2-.4.1.2.1.3.2.5.3.2.1.5.7.4.3l.9-1.5c.3 0 .7.1 1 .1h-.1c-1.4-.8-2.7 1.3-1.3 2.2 1.3.9 2.3.7 3.5-.3.9-1.1-.6-3.1-1.8-2.2z"/><path class="st2" d="M257.1 110.6c-1.1-.1-2 .2-2.8.9-1 .8.4 2.2 1.4 1.4.4-.4.8-.7 1.4-.7 1.1.2 1.1-1.4 0-1.6z"/><path class="st2" d="M253.6 109.3c-.5.2-1.1.1-1.6.1.3.6.6 1.2 1 1.8.7-1.5.7-3.8-1.6-3.5-1.2.2-.9 1.9.2 2 .4.1.4 0-.1-.4 0 .1-.3.4-.3.4-.6.6-.4 1.7.5 2 1 .3 2.1.1 3.1-.4 1.3-.7.2-2.6-1.2-2zm12.3 29.5c-1.4-4.5-8.6 1.3-5.4 4 3.2 2.7 7.4-5.6 2.7-7.7-1-.4-2.1 1-1.5 1.8.4.7.9 1.2.7 2-.1.4-.3.8-.5 1.1-.1.2-.5.5-.3.4.4-.2.9.2.8.7 0-.3.2-.6.4-.8.3-.3.6-.6.9-.8.5-.3.1 0 .1-.1.8 1.2 2.5.6 2.1-.6z"/><path class="st2" d="M267.8 137.8c.8.1 1.3.7 1.4 1.5 0 .2 0 .3-.1.3 0 0-.5 0-.3.1-.2 0-.2-.1 0 .1-.1-.1-.1-.1 0 0 0-.1 0-.2-.1-.2.1.3 0-.2 0-.3 0 .2.1-.3.1-.3-.1.2.1-.2.2-.3.1-.2.2-.2.3-.2h-.2.1c.2.1.4.3.6.4 1 .9 2.8-.2 2-1.5-1.1-1.9-3.5-2-4.8-.3-1 1.3-1.2 3.4 0 4.6 1.7 1.6 4.6.5 4.9-1.7.3-2.1-1.5-4-3.6-4-1.3-.2-1.7 1.6-.5 1.8z"/><ellipse transform="matrix(1 -.00445 .00445 1 -.776 .716)" class="st4" cx="160.4" cy="174.6" rx="46.1" ry="34.6"/><path class="st4" d="M85.8 138.4c26.6-.1 60.7 16.5 60.8 42.7.1 26.2-27.1 47.3-53.7 47.4s-42.5-20.8-42.6-47 8.9-42.9 35.5-43.1z"/><path class="st5" d="M252.2 187.3c-6-3.6-25.2-8.3-52.2-8.3l-14.3-16.4c-3-3.5-7.4-5.5-12-5.5H131c-4.5 0-8.9 1.6-12.4 4.5l-16.8 14.2-18 2.5c-2.5.4-4.6 2.2-5.2 4.7l-2.1 8.4 47.5 21.9h133v-17.7c0-3.3-1.8-6.5-4.8-8.3z"/><path class="st6" d="M257 197.8c0-6.2-9.5-12.5-53.9-12.5H79.6c-1.7 0-3.2 1.4-3.2 3.1v18.7l60.2 9.4H257v-18.7z"/><path class="st7" d="M257 210.3H108.5l-28.2-6.2c-1.7-.4-3.4.7-3.8 2.4-.4 1.7.7 3.4 2.4 3.7l28.5 6.2c.2.1.5.1.7.1H257c1.8 0 3.2-1.4 3.2-3.1 0-1.8-1.4-3.1-3.2-3.1z"/><ellipse class="st8" cx="228.5" cy="210.3" rx="15.8" ry="15.6"/><path class="st9" d="M228.5 229c-10.5 0-19-8.4-19-18.7 0-10.3 8.5-18.7 19-18.7s19 8.4 19 18.7c0 10.3-8.5 18.7-19 18.7zm0-31.2c-7 0-12.7 5.6-12.7 12.5s5.7 12.5 12.7 12.5c7 0 12.7-5.6 12.7-12.5s-5.7-12.5-12.7-12.5z"/><ellipse class="st10" cx="228.5" cy="210.3" rx="6.3" ry="6.2"/><ellipse class="st8" cx="108.1" cy="210.3" rx="15.8" ry="15.6"/><path class="st9" d="M108.1 229c-10.5 0-19-8.4-19-18.7 0-10.3 8.5-18.7 19-18.7s19 8.4 19 18.7c.1 10.3-8.5 18.7-19 18.7zm0-31.2c-7 0-12.7 5.6-12.7 12.5s5.7 12.5 12.7 12.5c7 0 12.7-5.6 12.7-12.5s-5.7-12.5-12.7-12.5z"/><ellipse class="st10" cx="108.1" cy="210.3" rx="6.3" ry="6.2"/><path class="st7" d="M203.2 204h-66.5c-1.7 0-3.2-1.4-3.2-3.1 0-1.7 1.4-3.1 3.2-3.1h66.5c1.7 0 3.2 1.4 3.2 3.1-.1 1.7-1.5 3.1-3.2 3.1zm53.8 0h-3.2c-1.7 0-3.2-1.4-3.2-3.1 0-1.7 1.4-3.1 3.2-3.1h3.2c1.7 0 3.2 1.4 3.2 3.1 0 1.7-1.4 3.1-3.2 3.1z"/><path class="st6" d="M101.8 175.9l16.8-14.2c3.4-2.9 7.8-4.5 12.4-4.5h42.7c4.6 0 9 2 12 5.5L200 179h-75c-2.8 0-5.6-.2-8.3-.7l-14.9-2.4z"/><path class="st2" d="M170.2 162.5c-1.2-1.4-3-2.2-4.9-2.2H136c-1.7 0-3.3.7-4.5 1.8l-9.5 9.4c-.8.8-1.3 2-1.3 3.1 0 2.4 2 4.4 4.5 4.4h55.5c1.3 0 2.1-1.5 1.2-2.6l-11.7-13.9z"/><path class="st11" d="M143 179h-9.5l6.3-18.7h6.4z"/><path class="st2" d="M185.7 162.6c-.8-.9-1.6-1.7-2.5-2.3H178c-1.3 0-2.1 1.5-1.2 2.6l11.8 13.9c1.2 1.4 3 2.2 4.9 2.2h6.5l-14.3-16.4z"/><path class="st12" d="M76.5 188.4v3.1h6.3c1.7 0 3.2-1.4 3.2-3.1s-1.4-3.1-3.2-3.1h-3.2c-1.7 0-3.1 1.4-3.1 3.1z"/><path class="st1" d="M49.5 188.2h33.3m-23.4 5.5h19m-12.7 6.4H80"/><ellipse transform="matrix(1 -.00445 .00445 1 -.776 .716)" class="st4" cx="160.4" cy="174.6" rx="46.1" ry="34.6"/><path class="st4" d="M85.8 138.4c26.6-.1 60.7 16.5 60.8 42.7.1 26.2-27.1 47.3-53.7 47.4s-42.5-20.8-42.6-47 8.9-42.9 35.5-43.1z"/><path class="st5" d="M252.2 187.3c-6-3.6-25.2-8.3-52.2-8.3l-14.3-16.4c-3-3.5-7.4-5.5-12-5.5H131c-4.5 0-8.9 1.6-12.4 4.5l-16.8 14.2-18 2.5c-2.5.4-4.6 2.2-5.2 4.7l-2.1 8.4 47.5 21.9h133v-17.7c0-3.3-1.8-6.5-4.8-8.3z"/><path class="st6" d="M257 197.8c0-6.2-9.5-12.5-53.9-12.5H79.6c-1.7 0-3.2 1.4-3.2 3.1v18.7l60.2 9.4H257v-18.7z"/><path class="st7" d="M257 210.3H108.5l-28.2-6.2c-1.7-.4-3.4.7-3.8 2.4-.4 1.7.7 3.4 2.4 3.7l28.5 6.2c.2.1.5.1.7.1H257c1.8 0 3.2-1.4 3.2-3.1 0-1.8-1.4-3.1-3.2-3.1z"/><ellipse class="st8" cx="228.5" cy="210.3" rx="15.8" ry="15.6"/><path class="st9" d="M228.5 229c-10.5 0-19-8.4-19-18.7 0-10.3 8.5-18.7 19-18.7s19 8.4 19 18.7c0 10.3-8.5 18.7-19 18.7zm0-31.2c-7 0-12.7 5.6-12.7 12.5s5.7 12.5 12.7 12.5c7 0 12.7-5.6 12.7-12.5s-5.7-12.5-12.7-12.5z"/><ellipse class="st10" cx="228.5" cy="210.3" rx="6.3" ry="6.2"/><ellipse class="st8" cx="108.1" cy="210.3" rx="15.8" ry="15.6"/><path class="st9" d="M108.1 229c-10.5 0-19-8.4-19-18.7 0-10.3 8.5-18.7 19-18.7s19 8.4 19 18.7c.1 10.3-8.5 18.7-19 18.7zm0-31.2c-7 0-12.7 5.6-12.7 12.5s5.7 12.5 12.7 12.5c7 0 12.7-5.6 12.7-12.5s-5.7-12.5-12.7-12.5z"/><ellipse class="st10" cx="108.1" cy="210.3" rx="6.3" ry="6.2"/><path class="st7" d="M203.2 204h-66.5c-1.7 0-3.2-1.4-3.2-3.1 0-1.7 1.4-3.1 3.2-3.1h66.5c1.7 0 3.2 1.4 3.2 3.1-.1 1.7-1.5 3.1-3.2 3.1zm53.8 0h-3.2c-1.7 0-3.2-1.4-3.2-3.1 0-1.7 1.4-3.1 3.2-3.1h3.2c1.7 0 3.2 1.4 3.2 3.1 0 1.7-1.4 3.1-3.2 3.1z"/><path class="st6" d="M101.8 175.9l16.8-14.2c3.4-2.9 7.8-4.5 12.4-4.5h42.7c4.6 0 9 2 12 5.5L200 179h-75c-2.8 0-5.6-.2-8.3-.7l-14.9-2.4z"/><path class="st2" d="M170.2 162.5c-1.2-1.4-3-2.2-4.9-2.2H136c-1.7 0-3.3.7-4.5 1.8l-9.5 9.4c-.8.8-1.3 2-1.3 3.1 0 2.4 2 4.4 4.5 4.4h55.5c1.3 0 2.1-1.5 1.2-2.6l-11.7-13.9z"/><path class="st11" d="M143 179h-9.5l6.3-18.7h6.4z"/><path class="st2" d="M185.7 162.6c-.8-.9-1.6-1.7-2.5-2.3H178c-1.3 0-2.1 1.5-1.2 2.6l11.8 13.9c1.2 1.4 3 2.2 4.9 2.2h6.5l-14.3-16.4z"/><path class="st12" d="M76.5 188.4v3.1h6.3c1.7 0 3.2-1.4 3.2-3.1s-1.4-3.1-3.2-3.1h-3.2c-1.7 0-3.1 1.4-3.1 3.1z"/><path class="st1" d="M49.5 188.2h33.3m-23.4 5.5h19m-12.7 6.4H80"/><path class="st2" d="M275.7 151.6c-1 8.1-1 16.3-1.4 24.5-.4 8.7-.6 17.4.1 26.1.1.8 1.1.7 1-.2-.5-7.9-.4-15.8-.1-23.8.3-8.8.3-17.7 1.2-26.5.1-.6-.7-.8-.8-.1z"/><path class="st2" d="M276 160.6c2.4-5.6 6.5-7.1 11-5.9.7.2.9-1.1.3-1.4-4.7-2.4-9.7.9-12 6.6-.4.7.4 1.4.7.7z"/><path class="st2" d="M287.8 146.9c-1.9-1.4-5.1.8-6.9 1.9-2.6 1.7-4.8 5-5.7 8.9-.2.9.8 1.3 1 .4.9-3.4 2.4-5.7 4.6-7.5 1.4-1.2 4.9-3.2 6.6-2.5.5.1.8-.8.4-1.2z"/><path class="st2" d="M276.1 157.9c1.1-7.3 2.5-13.5 6.9-18.1.6-.6.1-1.9-.6-1.4-4.9 3.6-6.4 12-7.4 19.1 0 .9 1 1.4 1.1.4z"/><path class="st2" d="M276.5 157.6c1.6-5.8-1.7-16-6-17.9-.7-.3-1 1-.5 1.5 3.3 3.3 6.8 10 5.6 16-.2.9.7 1.2.9.4z"/><path class="st2" d="M276.5 158.6c-.1-3.1-1.4-5.6-2.9-7.8-1.5-2.1-3.6-4.6-5.7-5-.5-.1-.7 1-.3 1.3 3.3 2.3 7.4 5.8 8 11.5 0 .8.9.7.9 0z"/><path class="st2" d="M275.9 157.9c-2.1-4.6-9.3-5.3-12-1.5-.4.5 0 1.5.5 1.3 3.5-1.4 7.7-3.4 10.7 1 .4.6 1.1-.1.8-.8zm5.4-17.2c.4.7.9 1.5 1.4 2.1.5.6 1.2-.3.8-1-.4-.7-.9-1.7-1.5-2.1-.6-.4-1.1.4-.7 1zm-.7 1.5c.5.8.9 1.8 1.4 2.4.4.5 1.2-.1.8-.9-.5-.9-1.1-1.7-1.6-2.4-.4-.6-1 .2-.6.9zm-1 2.4c.3.8.9 1.8 1.6 2.1.4.2.8-.5.6-1-.3-.7-.9-1.1-1.2-1.8-.5-.8-1.4-.1-1 .7zm-1.6 2.1c.4.7.7 1.4 1.1 2 .5.7 1.2-.3.8-1-.4-.7-.8-1.3-1.2-1.9-.4-.7-1.1.2-.7.9zm-.6 3.9c.3.5.4 1.1.7 1.6.3.5 1 0 .8-.7-.1-.6-.4-1.2-.7-1.7-.3-.7-1.2 0-.8.8z"/><path class="st2" d="M281 138.5c-1.1.3-2.4.4-3.4 1-.5.3-.2 1.4.2 1.3 1.1-.1 2.4-.4 3.5-1 .6-.2.4-1.5-.3-1.3zm-.9 2.8c-1 .1-2.1-.5-3 .2-.5.4-.2 1.4.3 1.2.9-.3 1.8 0 2.8-.2.5 0 .4-1.2-.1-1.2zm-1.2 2.8c-.7-.2-1.3-.1-2 0-.6.1-.4 1.4.1 1.4.6 0 1.1-.1 1.7 0 .6.1.8-1.3.2-1.4zm-2 2c-.2.1-.4.3-.5.6-.3.6.4 1.4.8.9 0-.1.1-.1.1-.1.6-.4.2-1.7-.4-1.4zm10.3.8c-.5-.9-.7-2.1-1.5-2.5-.5-.3-.8.7-.5 1.1.5.7.8 1.5 1.2 2.2.3.7 1.1-.1.8-.8z"/><path class="st2" d="M286.2 146.6c-1-.3-2-.8-3-.7-.6 0-.6 1.3 0 1.4 1 .2 1.9.5 2.9.7.5.1.6-1.2.1-1.4z"/><path class="st2" d="M284.3 147.2c-.8-.5-1.7-1-2.6-.9-.6.1-.7 1.4 0 1.4.8 0 1.6.4 2.4.8.5.3.7-1 .2-1.3zm1.3 0c.1.6.1 1.2.1 1.9.1.8.8 1 1 .2.3-.9.1-2-.3-2.7-.3-.6-.9 0-.8.6z"/><path class="st2" d="M284.2 148.4c.2.5.1 1 .3 1.5.2.6.8.7 1 0 .2-.8-.1-1.7-.4-2.3-.5-.6-1.2.2-.9.8z"/><path class="st2" d="M283.1 148.9c0 .3 0 .7-.1 1-.1.8.7 1 1 .4.3-.5.3-1.2.2-1.8-.2-1-1.3-.6-1.1.4zm-1.4.7c0 .2-.1.4-.1.6-.2.6.5 1.2.8.7.2-.3.3-.5.3-.9.2-.9-.8-1.3-1-.4zm-.7-.4c-.2-.5-.7-.8-1.1-.9-.5-.2-1.1-.2-1.5.2-.5.4-.2 1.5.4 1.3.3-.1.5-.1.8-.1.1 0 .3.1.4.1.1 0 .2.2.2.1.2.8 1.1.1.8-.7z"/><path class="st2" d="M279.2 149.1c-.7.2-1.6.6-1.7 1.7-.1.7.4 1.2.8.7.3-.5.7-.7 1.2-.9.7-.3.4-1.7-.3-1.5z"/><path class="st2" d="M280.1 151.3c-.6-.1-1.3-.2-1.8.4-.3.4-.1 1.2.3 1.2s.8-.2 1.3-.2c.6.1.8-1.3.2-1.4zm5.5 2.6c0 .7-.1 1.4-.1 2.2 0 .8.9 1 1 .2.1-.8.1-1.6.2-2.4 0-.9-1.1-.9-1.1 0zm-1.3.1c-.2.6-.5 1.1-.7 1.7-.3.7.4 1.6.8.9.4-.6.6-1.2.8-1.9.3-.7-.5-1.5-.9-.7z"/><path class="st2" d="M283.4 154.4c-.2.4-.4.9-.6 1.3-.3.8.5 1.5.8.7.2-.4.4-.9.6-1.3.3-.7-.5-1.4-.8-.7zm-1-1.1c-.7 1.1-1.5 2.3-1.9 3.7-.2.7.4 1.5.8.9.7-1.1 1.3-2.5 1.9-3.7.3-.7-.5-1.5-.8-.9z"/><path class="st2" d="M280.3 155.2c-.5 1-1 2-1.3 3.2-.2.8.7 1.3 1 .6.4-1 .8-2.1 1.3-3.1.2-.7-.6-1.4-1-.7zm-1.9 1c-.3.6-.5 1.2-.8 1.9-.2.6-.4 1.3-.5 2-.1.9.6 1.4 1 .6.3-.5.4-1.1.5-1.7.2-.7.4-1.4.7-2 .4-.8-.5-1.5-.9-.8z"/><path class="st2" d="M277.5 156.7c-.8 1.3-1.6 3.1-1.8 4.8-.1.8.6 1.3 1 .6.7-1.4.9-3.2 1.6-4.5.4-.6-.4-1.5-.8-.9zm-3.1.2c-.5.9-1.1 2.1-1.3 3.3-.2.7.5 1.2.8.7.6-.9 1-2.2 1.3-3.3.3-.6-.4-1.3-.8-.7z"/><path class="st2" d="M273.8 156.6c-.7.6-1.3 1.6-1.8 2.5-.3.6.3 1.5.7 1.1.7-.6 1-1.8 1.6-2.5.5-.5-.1-1.4-.5-1.1zm-1.2-1.2c-1.1.8-1.8 2.5-2.4 3.9-.3.6.3 1.6.8 1.1 1-1 1.3-2.7 2.2-3.8.4-.6-.1-1.6-.6-1.2zm-2.3.5c-1.1.2-1.5 1.8-2.1 2.9-.4.7.4 1.6.9 1 .5-.7.8-2 1.4-2.5.5-.4.3-1.5-.2-1.4z"/><path class="st2" d="M268.4 155.1c-.7 1.1-1.3 2.4-1.6 3.8-.2.9.7 1.4 1 .7.5-1.1.8-2.4 1.4-3.4.4-.8-.3-1.9-.8-1.1zm-2.3 1.9c-.6.6-1.2 1.3-1.3 2.3-.1.6.5 1.3.8.7.4-.6.7-1.3 1.2-1.8s-.2-1.8-.7-1.2zm7.8-4c-.1.8-.3 1.5-.4 2.3-.1.8.6 1.2.9.6.4-.8.5-2.1.4-3-.1-.8-.9-.6-.9.1zm-.8-1.9c-.3.8-.7 1.3-1 2.1-.3.7.3 1.4.8.9.5-.6.9-1.5 1.2-2.4.2-.8-.7-1.4-1-.6z"/><path class="st2" d="M272.5 149.9c-.7.3-1.4 1-1.8 1.9-.3.6.2 1.3.7 1 .5-.5.9-1.3 1.5-1.6.4-.3.1-1.5-.4-1.3zm-2-1.2c-.4.2-.7.5-1.1 1-.4.6.1 1.5.6 1.1.3-.2.5-.5.9-.7.6-.4.2-1.7-.4-1.4zm-1.9-1.3c-.6.1-1.1.6-1.5 1.3-.4.7.4 1.4.8.9.3-.3.6-.7.9-.8.7-.2.5-1.6-.2-1.4zm-2.1-.4c-.2.1-.3.3-.4.5-.2.7.3 1.3.7.8.1 0 .1-.1.2-.1.5-.4 0-1.6-.5-1.2z"/><path class="st2" d="M268.3 147.9c.9-.8 1.7-1.7 2.5-2.6.5-.5-.1-1.5-.6-1.1-.9.6-1.8 1.7-2.5 2.7-.3.4.2 1.4.6 1zm2.9-.7c-.1-.1-.1 0-.2.2s-.2.3-.2.5c-.4.7.4 1.4.8.9.4-.4.7-.8 1.1-1.2-.2-.3-.5-.7-.7-1-.6 1.4.1 2.6 1.2 2.5-.2-.3-.3-.6-.5-.9-.2 1.2-.2 2.3.5 3.1.5.6 1.1-.6.7-1.2-.3-.5-.3-1-.2-1.6 0-.4-.3-.8-.5-.7h-.4c-.1 0 0 0 .1-.2.2-.6-.2-1.4-.7-1-.4.4-.8.8-1.2 1.3.2.3.5.7.7 1 .4-.8.9-2.1 0-2.7-.6-.6-1 .5-.5 1z"/><path class="st2" d="M273.8 150.7c.2 1 .4 1.9.8 2.7.4.6 1-.1.8-.8-.3-.7-.5-1.4-.6-2.2-.2-1-1.2-.7-1 .3zm1.6-2.6c-.2 0-.3-.1-.5-.2-.4-.2-.8.5-.6 1 .3.7.8.8 1.4.6.6-.3.3-1.6-.3-1.4zm-1.5-2.4c-.2.1-.2.2-.1.2-.1 0-.2-.1-.3-.1-.1.5-.2 1-.3 1.6.2 0 .3.1.5-.1.3-.3.4-.8.1-1.3-.1-.3-.4-.4-.6-.6-.2-.2-.4-.6-.7-.6-.3 0-.6.4-.5.9.3-.2.6-.4.9-.5-.2-.6-.6-1-.8-1.5-.2-.5-.6-.6-.9-.7.2.3.3.6.5.9 0-.2.1-.4.1-.7 0-.6-.6-.8-.8-.3-.1.2-.1.3-.2.4-.2.5 0 1 .4 1.1.1 0 .2.4.3.6.2.4.4.7.6 1.1.4.6 1.1-.2.8-.9-.1.4-.2.7-.3 1.1-.3.1-.4-.1-.2 0 .1.1.2.1.2.2.1.1.2.5.2.2.1-.3.3-.6.4-1 .1 0 .3.1.4.1-.6-.5-1.2.8-.6 1.4.6.5 1 .5 1.5-.2.7-.5 0-1.8-.6-1.3z"/><path class="st2" d="M271.5 142.2c-.5-.1-.9.1-1.3.6s.2 1.4.6.9c.2-.2.4-.4.6-.4.6 0 .6-1 .1-1.1z"/><path class="st2" d="M269.9 141.4c-.2.1-.5.1-.7.1.1.4.3.7.4 1.1.3-1 .3-2.4-.7-2.2-.5.1-.4 1.2.1 1.3.2.1.2 0-.1-.2 0 .1-.1.2-.2.3-.3.4-.2 1.1.2 1.2.5.2 1 0 1.4-.2.7-.5.2-1.8-.4-1.4zm5.6 18.6c-.6-2.8-3.9.8-2.4 2.5 1.4 1.7 3.3-3.6 1.2-4.8-.5-.3-.9.6-.7 1.2.2.4.4.8.3 1.3 0 .3-.1.5-.2.7-.1.1-.2.3-.1.2.2-.1.4.2.4.4 0-.2.1-.3.2-.5s.3-.4.4-.5c.2-.2.1 0 0 0 .2.7 1 .3.9-.5z"/><path class="st2" d="M276.3 159.4c.3.1.6.4.6.9v.2h-.2c-.1 0-.1-.1 0 .1 0-.1 0-.1 0 0v-.6c0 .1.1-.2.1-.2l.1-.1h-.1c.1 0 .1 0 0 0l.3.3c.5.6 1.3-.1.9-.9-.5-1.2-1.6-1.3-2.2-.2-.4.8-.6 2.2 0 2.9.8 1 2.1.3 2.2-1.1.1-1.3-.7-2.5-1.6-2.5-.5-.1-.6 1.1-.1 1.2z"/><circle class="st4" cx="206.5" cy="74.5" r="20.8"/><circle class="st4" cx="63.8" cy="35" r="10.4"/><circle class="st4" cx="236.6" cy="258.9" r="12.7"/><path class="st2" d="M40.5 176.8c-1 5.8-1 11.6-1.4 17.4-.4 6.2-.7 12.4.1 18.5.1.6 1.1.5 1.1-.1-.6-5.6-.4-11.2-.1-16.8.3-6.3.3-12.6 1.2-18.8.1-.6-.8-.7-.9-.2z"/><path class="st2" d="M40.8 183.1c2.4-3.9 6.7-5 11.3-4.2.7.1 1-.8.3-1-4.8-1.7-9.9.7-12.4 4.7-.3.5.5 1 .8.5z"/><path class="st2" d="M52.9 173.4c-1.9-1-5.3.5-7.1 1.3-2.7 1.2-5 3.5-5.8 6.3-.2.6.8.9 1 .3.9-2.4 2.5-4 4.7-5.3 1.4-.8 5-2.3 6.8-1.8.5.2.9-.5.4-.8z"/><path class="st2" d="M40.9 181.2c1.1-5.2 2.5-9.6 7.1-12.8.6-.4.1-1.3-.6-1-5.1 2.6-6.6 8.5-7.6 13.5-.1.7 1 1 1.1.3z"/><path class="st2" d="M41.3 181c1.6-4.1-1.8-11.3-6.2-12.7-.7-.2-1 .7-.5 1.1 3.4 2.3 7 7.1 5.7 11.4-.1.5.8.8 1 .2z"/><path class="st2" d="M41.3 181.7c-.1-2.2-1.5-4-3-5.5s-3.7-3.2-5.9-3.5c-.5-.1-.7.7-.3.9 3.4 1.7 7.7 4.1 8.3 8.2 0 .5.9.4.9-.1z"/><path class="st2" d="M40.7 181.2c-2.1-3.2-9.6-3.8-12.3-1.1-.4.4 0 1.1.5.9 3.6-1 8-2.4 11 .7.4.5 1.1 0 .8-.5zm5.5-12.2c.4.5.9 1 1.4 1.5.5.5 1.2-.2.8-.7-.4-.5-.9-1.2-1.6-1.5-.5-.3-.9.3-.6.7zm-.7 1.1c.5.6.9 1.3 1.5 1.7.4.3 1.3-.1.9-.6-.5-.6-1.1-1.2-1.7-1.7-.4-.5-1 .1-.7.6zm-1 1.7c.3.6.9 1.3 1.6 1.5.4.1.8-.3.6-.7-.3-.5-.9-.8-1.3-1.3-.4-.6-1.3-.1-.9.5zm-1.6 1.5c.4.5.7 1 1.2 1.4.5.5 1.2-.2.8-.7-.4-.5-.8-.9-1.2-1.4-.6-.5-1.2.2-.8.7zm-.6 2.7c.3.4.4.8.7 1.2.3.4 1 0 .9-.5-.1-.4-.4-.8-.7-1.2-.4-.5-1.3-.1-.9.5z"/><path class="st2" d="M46 167.4c-1.2.2-2.4.3-3.5.7-.5.2-.3 1 .2.9 1.2-.1 2.5-.3 3.6-.7.6-.1.4-1-.3-.9zm-1 2c-1 .1-2.1-.3-3.1.2-.5.3-.2 1 .4.9.9-.2 1.9 0 2.9-.1.4-.1.3-1-.2-1zm-1.2 2c-.7-.1-1.4-.1-2 0-.6.1-.4 1 .1 1 .6 0 1.2-.1 1.8 0 .5.1.7-.9.1-1zm-2.1 1.5c-.2.1-.4.2-.5.4-.3.5.4 1 .8.6 0-.1.1-.1.1-.1.7-.2.3-1.2-.4-.9zm10.6.5c-.5-.6-.7-1.5-1.6-1.8-.5-.2-.8.5-.5.8.5.5.8 1.1 1.2 1.6.4.5 1.3-.1.9-.6z"/><path class="st2" d="M51.3 173.2c-1-.2-2.1-.6-3.1-.5-.7 0-.7.9 0 1 1 .1 2 .4 3 .5.5.1.6-.9.1-1z"/><path class="st2" d="M49.3 173.6c-.9-.3-1.8-.7-2.7-.6-.6.1-.7 1 0 1 .9 0 1.6.3 2.4.6.6.2.9-.7.3-1zm1.4 0c.1.5.1.9.1 1.3.1.6.8.7 1 .2.3-.6.1-1.4-.4-1.9-.2-.4-.8 0-.7.4z"/><path class="st2" d="M49.2 174.5c.2.3.1.7.3 1.1.2.4.8.5 1 0 .2-.6-.1-1.2-.4-1.7-.4-.4-1.1.1-.9.6z"/><path class="st2" d="M48.1 174.8c0 .2 0 .5-.1.7-.1.6.7.7 1 .3.3-.4.3-.9.2-1.3-.2-.7-1.3-.4-1.1.3zm-1.4.5c0 .1-.1.3-.1.4-.2.4.5.9.8.5.2-.2.3-.4.3-.6.2-.6-.9-.9-1-.3zm-.8-.3c-.2-.4-.7-.5-1.1-.6-.5-.1-1.1-.2-1.6.1-.5.3-.2 1.1.4.9.3-.1.5-.1.8 0 .1 0 .3 0 .4.1.1 0 .2.1.2.1.3.5 1.2 0 .9-.6z"/><path class="st2" d="M44.1 174.9c-.7.1-1.6.4-1.8 1.2-.1.5.5.9.8.5.4-.3.8-.5 1.2-.6.8-.2.5-1.2-.2-1.1zm.9 1.6c-.6-.1-1.3-.1-1.8.3-.3.3-.1.8.3.8.5 0 .9-.2 1.3-.1.7.1.8-.9.2-1zm5.7 1.9c0 .5-.1 1-.1 1.5 0 .6.9.7 1 .2.1-.5.1-1.1.2-1.7 0-.7-1.1-.7-1.1 0zm-1.3.1c-.3.4-.5.8-.8 1.2-.3.5.4 1.1.8.7.4-.4.6-.8.8-1.3.4-.7-.4-1.2-.8-.6z"/><path class="st2" d="M48.4 178.8l-.6.9c-.3.6.5 1 .9.5l.6-.9c.3-.6-.6-1.1-.9-.5zm-1.1-.9c-.7.8-1.5 1.6-2 2.6-.2.5.4 1.1.8.6.8-.8 1.3-1.7 2-2.6.4-.4-.4-1-.8-.6z"/><path class="st2" d="M45.2 179.3c-.6.7-1 1.5-1.4 2.3-.2.6.7.9 1 .4.4-.7.8-1.5 1.3-2.2.4-.5-.5-1-.9-.5zm-1.9.7c-.3.4-.6.9-.8 1.3-.2.4-.5.9-.5 1.4-.1.6.6 1 1 .4.3-.3.4-.8.5-1.2.2-.5.4-1 .7-1.4.4-.5-.5-1-.9-.5z"/><path class="st2" d="M42.4 180.4c-.9.9-1.6 2.2-1.9 3.4-.1.6.6.9 1 .4.7-1 .9-2.2 1.7-3.2.3-.4-.4-1-.8-.6zm-3.2.1c-.6.7-1.1 1.5-1.3 2.3-.2.5.5.9.9.5.6-.6 1-1.5 1.4-2.3.1-.4-.7-.9-1-.5z"/><path class="st2" d="M38.5 180.3c-.8.4-1.4 1.1-1.8 1.8-.3.4.3 1 .7.7.7-.5 1-1.3 1.7-1.8.4-.3-.1-.9-.6-.7zm-1.2-.9c-1.1.6-1.8 1.8-2.5 2.7-.3.4.3 1.1.8.8 1-.7 1.4-1.9 2.3-2.7.5-.4-.1-1-.6-.8zm-2.4.4c-1.1.1-1.6 1.2-2.1 2-.4.5.4 1.1.9.7.6-.5.8-1.4 1.5-1.8.4-.2.3-1-.3-.9z"/><path class="st2" d="M33 179.2c-.8.8-1.3 1.7-1.7 2.7-.2.6.7 1 1.1.5.5-.8.8-1.7 1.4-2.4.4-.5-.3-1.3-.8-.8zm-2.4 1.4c-.6.4-1.2.9-1.4 1.6-.1.5.5.9.9.5s.7-.9 1.2-1.3c.5-.3-.2-1.2-.7-.8zm8-2.9c-.1.6-.3 1.1-.4 1.7-.1.5.6.9.9.4.4-.6.6-1.5.4-2.2-.1-.5-.9-.4-.9.1zm-.8-1.3c-.3.5-.7.9-1 1.5-.3.5.3 1 .8.6s.9-1.1 1.2-1.7c.2-.5-.7-.9-1-.4z"/><path class="st2" d="M37.2 175.6c-.7.2-1.4.7-1.8 1.4-.3.4.2 1 .7.7.6-.3.9-.9 1.5-1.2.5-.3.1-1.1-.4-.9zm-2-.9c-.4.1-.8.4-1.1.7-.4.4.1 1 .6.8.3-.1.6-.4.9-.5.6-.3.2-1.2-.4-1zm-2-1c-.6.1-1.2.4-1.5.9-.4.5.4 1 .8.6.3-.2.6-.5 1-.6.6 0 .4-1-.3-.9zm-2.2-.2c-.2.1-.3.2-.4.4-.2.5.3.9.8.6.1 0 .1 0 .2-.1.5-.3 0-1.2-.6-.9z"/><path class="st2" d="M32.9 174.1c.9-.5 1.8-1.2 2.6-1.9.5-.4-.1-1-.6-.8-.9.5-1.8 1.2-2.6 1.9-.4.4.1 1.1.6.8zm3-.4c-.1-.1-.1 0-.2.2-.1.1-.2.2-.2.4-.4.5.4 1 .8.7.4-.3.7-.6 1.1-.8l-.7-.7c-.6 1 .1 1.8 1.3 1.7-.2-.2-.3-.4-.5-.7-.2.8-.2 1.6.5 2.2.5.4 1.1-.4.7-.9-.3-.3-.3-.7-.2-1.1 0-.3-.3-.6-.5-.5h-.4c-.1 0 0 0 .1-.2.2-.4-.2-1-.7-.7l-1.2.9.7.7c.4-.6.9-1.5 0-1.9-.7-.5-1.2.3-.6.7z"/><path class="st2" d="M38.5 176.1c.2.7.4 1.4.8 1.9.4.4 1.1-.1.8-.6-.3-.5-.5-1-.6-1.6-.2-.6-1.2-.4-1 .3zm1.7-1.8c-.2 0-.4 0-.5-.1-.4-.2-.8.4-.6.7.3.5.8.6 1.4.4.6-.2.3-1.2-.3-1zm-1.5-1.7c-.2.1-.2.1-.1.1-.1 0-.2-.1-.3-.1-.1.4-.2.7-.3 1.1h.5c.3-.2.4-.6.1-.9-.2-.2-.5-.3-.6-.4-.2-.1-.4-.4-.7-.4-.3 0-.7.3-.5.6.3-.1.7-.3 1-.4-.2-.4-.6-.7-.8-1.1-.2-.4-.6-.5-.9-.5.2.2.3.4.5.7 0-.2.1-.3.1-.5 0-.5-.6-.6-.8-.2-.1.1-.1.2-.2.3-.2.4 0 .7.4.8.1 0 .2.3.3.4.2.3.4.5.7.8.4.5 1.1-.1.8-.6-.1.2-.2.5-.3.7-.3.1-.4-.1-.2 0 .1 0 .2.1.2.1.1.1.2.3.2.2.1-.2.3-.5.4-.7.2 0 .3 0 .5.1-.7-.4-1.3.6-.6 1 .6.4 1.1.3 1.6-.1.2-.5-.4-1.4-1-1z"/><path class="st2" d="M36.2 170.1c-.5-.1-.9.1-1.3.4-.4.4.2 1 .6.6.2-.2.4-.3.7-.3.5.1.4-.6 0-.7z"/><path class="st2" d="M34.5 169.5c-.2.1-.5.1-.7.1.1.3.3.5.4.8.3-.7.3-1.7-.7-1.6-.6.1-.4.9.1.9.2 0 .2 0-.1-.2 0 0-.1.2-.2.2-.3.3-.2.8.2.9.5.1 1 0 1.4-.2.8-.3.3-1.2-.4-.9zm5.7 13.2c-.7-2-4 .6-2.5 1.8 1.5 1.2 3.4-2.5 1.3-3.4-.5-.2-1 .4-.7.8.2.3.4.5.3.9 0 .2-.1.3-.2.5-.1.1-.2.2-.1.2.2-.1.4.1.4.3 0-.1.1-.2.2-.4.1-.1.3-.3.4-.3.2-.1.1 0 0 0 .3.4 1.1.2.9-.4z"/><path class="st2" d="M41.1 182.3c.4.1.6.3.6.7v.1h-.2c-.1 0-.1-.1 0 0 0-.1 0-.1 0 0v-.3c0 .1.1-.1.1-.1l.1-.1h-.1c.1 0 .1 0 0 0 .1 0 .2.1.3.2.5.4 1.3-.1.9-.7-.5-.9-1.6-.9-2.2-.1-.5.6-.6 1.5 0 2 .8.7 2.1.2 2.2-.8.1-.9-.7-1.8-1.7-1.8-.4 0-.5.8 0 .9z"/><path class="st1" d="M35.2 87.9h35.3m-27.2 5.8h21.4m-38.8 5.8h35.4"/><path class="st2" d="M50.5 94.1c2.4-3.9 6.1-5.2 9.8-3 .5-3.4 2.6-6.7 5.8-7.1 3.7-.4 5.1 3 7.9 3.5 2.5-12.8 28.9-20.9 27.7-2.3 4.2 2.7 10 2 14.2 7 .4.1 15.2 1.7 13.5 4.1-.5.5-.9.6-1.3.4-2 1.1-13.1.2-14.6-.1-33.3-5.8-42.1 1.1-63.3-.6-.2-.7-.1-1.3.3-1.9z"/><path class="st6" d="M73.5 85.2c1.2-4.2-4.3-4.2-6.5-3.7-4.8 1.1-7.8 5.9-6.2 11.3.2.6 1 .4.9-.2-1.1-4.6.5-8.3 4.5-9.9 1.7-.7 7.7-1.5 6.8 2.4-.1.3.4.5.5.1z"/><path class="st6" d="M73.8 85.5c1.6-7.4 8.3-11.4 14.4-12.9 6.8-1.7 15.6 4.5 15.1 12.7 0 .5.6.5.7 0 1-8.1-6.7-13-12.9-13.7-7-.8-16.4 5.8-17.8 13.7-.1.4.4.6.5.2z"/><path class="st6" d="M103.7 85.6c6-1.5 10.2 1 14 6.1.3.4.7-.1.5-.5-3.7-5.3-8.7-7.9-14.6-6.1-.3.1-.2.6.1.5z"/><path class="st6" d="M118 91.8c2.1.1 4.1.2 6.2.6.8.2 1.7.4 2.5.7 1.6.3 2.5 1.3 3 2.9-4.4 1.3-9.2.9-13.6.5-8.3-.8-16.5-3-24.9-3-8.4 0-16.8 1-25.1 1.6-4 .3-8.1.5-12.1.4-2.3 0-3.9-.7-2.3-3.6 1.8-3.3 6.2-5.3 9-2.2.3.4.9-.2.5-.6-4-4.3-12.2.6-11 6.8 0 .2.2.3.3.3 13.4.8 27-1.7 40.5-1.9 13.2-.2 26.8 6.1 39.9 2 .2-.1.3-.4.2-.6-3.5-4.1-8.3-4.5-13.2-4.5-.3 0-.3.6.1.6zM96.2 78.3c-.3 1.2-.6 2.4-1.3 3.4-.2.4.3.7.5.4.7-1 1.1-2.3 1.4-3.6.1-.5-.5-.7-.6-.2zM98 80c-.1 1.1-.7 2-1.3 2.8-.2.3.3.8.5.5.7-1 1.4-2 1.4-3.3.1-.4-.6-.4-.6 0z"/><path class="st1" d="M169.1 71.6h30.2m-22 5.8h23.2"/><path class="st6" d="M101.3 53.7l9.8.5-9.8.5zm76.5-15l9.9.5-9.9.5zm33.7 90.4l9.8.5-9.8.5z"/><path class="st2" d="M58.8 154.7c-1.6 8.5-1.6 17.2-2.1 25.8-.6 9.2-1 18.4.2 27.5.1.9 1.7.7 1.6-.2-.9-8.4-.6-16.7-.2-25 .5-9.3.5-18.7 1.9-27.9.1-.8-1.3-1-1.4-.2z"/><path class="st2" d="M59.2 164.1c3.7-5.9 10.3-7.5 17.2-6.2 1 .2 1.5-1.1.5-1.5-7.3-2.5-15.1 1-18.9 7-.5.7.7 1.4 1.2.7z"/><path class="st2" d="M77.7 149.7c-2.9-1.4-8 .8-10.8 2-4.2 1.8-7.5 5.2-8.9 9.3-.3.9 1.2 1.3 1.5.4 1.3-3.5 3.8-6 7.2-7.9 2.2-1.3 7.6-3.4 10.4-2.7.8.3 1.3-.7.6-1.1z"/><path class="st2" d="M59.4 161.3c1.7-7.7 3.9-14.3 10.9-19.1.9-.6.2-2-.9-1.5-7.7 3.8-10 12.6-11.6 20.1-.1 1 1.4 1.5 1.6.5z"/><path class="st2" d="M60.1 161c2.4-6.2-2.7-16.9-9.4-18.9-1-.3-1.6 1-.7 1.6 5.2 3.4 10.7 10.5 8.7 16.9-.3.9 1.1 1.2 1.4.4z"/><path class="st2" d="M60 162c-.2-3.2-2.2-5.9-4.5-8.2-2.3-2.2-5.7-4.8-9-5.2-.8-.1-1.1 1.1-.4 1.4 5.2 2.5 11.7 6.1 12.6 12.1 0 .8 1.3.6 1.3-.1z"/><path class="st2" d="M59.1 161.2c-3.2-4.8-14.6-5.6-18.8-1.6-.6.6 0 1.6.8 1.4 5.5-1.5 12.1-3.5 16.7 1.1.6.6 1.8-.1 1.3-.9zm8.4-18c.6.7 1.4 1.6 2.1 2.2.8.7 1.9-.3 1.2-1.1-.6-.8-1.4-1.8-2.4-2.2-.7-.4-1.4.4-.9 1.1zm-1 1.5c.7.8 1.4 1.9 2.3 2.6.7.5 1.9-.1 1.3-.9-.7-.9-1.7-1.8-2.6-2.6-.7-.6-1.6.2-1 .9zm-1.6 2.5c.5.9 1.4 1.9 2.5 2.2.6.2 1.3-.5.9-1-.5-.7-1.4-1.1-2-1.9-.6-.8-1.9-.1-1.4.7zm-2.5 2.3c.6.7 1.1 1.5 1.8 2.1.8.7 1.8-.3 1.2-1.1-.6-.7-1.2-1.4-1.9-2-.7-.7-1.7.3-1.1 1zm-.9 4c.4.6.7 1.2 1.1 1.7.5.6 1.5 0 1.3-.7-.2-.7-.6-1.2-1-1.8-.6-.7-2 0-1.4.8z"/><path class="st2" d="M67.2 140.8c-1.8.3-3.7.5-5.4 1.1-.7.3-.4 1.5.4 1.4 1.8-.1 3.8-.4 5.4-1 .9-.4.6-1.7-.4-1.5zm-1.5 3c-1.6.1-3.2-.5-4.7.2-.8.4-.3 1.4.5 1.3 1.4-.3 2.9 0 4.3-.2.8-.1.7-1.4-.1-1.3zm-1.9 2.9c-1-.2-2.1-.2-3.1 0-.9.1-.7 1.4.2 1.4.9 0 1.8-.1 2.7 0 .9.2 1.1-1.2.2-1.4zm-3.2 2.2c-.4.1-.6.3-.8.6-.5.7.6 1.5 1.2.9 0-.1.1-.1.2-.1 1.1-.4.5-1.8-.6-1.4zm16.2.8c-.7-1-1.1-2.2-2.4-2.6-.7-.3-1.3.7-.8 1.2.7.7 1.2 1.6 1.9 2.3.6.6 1.8-.2 1.3-.9z"/><path class="st2" d="M75.2 149.4c-1.6-.3-3.1-.8-4.7-.8-1 0-1 1.3 0 1.4 1.5.2 3 .5 4.5.8.9.1 1.1-1.2.2-1.4z"/><path class="st2" d="M72.2 150c-1.3-.5-2.7-1.1-4.1-.9-.9.1-1 1.4 0 1.4 1.3 0 2.5.4 3.7.8.9.4 1.3-1 .4-1.3zm2.2-.1c.2.7.1 1.3.2 2 .1.9 1.2 1 1.6.2.4-.9.1-2.1-.5-2.8-.6-.5-1.5 0-1.3.6z"/><path class="st2" d="M72.1 151.3c.3.5.2 1.1.4 1.6.3.7 1.2.8 1.5 0 .3-.8-.1-1.8-.7-2.5-.5-.7-1.6.2-1.2.9z"/><path class="st2" d="M70.4 151.8c.1.4 0 .7-.1 1.1-.1.9 1.1 1 1.6.4.4-.6.5-1.3.3-1.9-.4-1.1-2-.7-1.8.4zm-2.1.7c0 .2-.1.4-.2.6-.2.7.8 1.3 1.3.7.3-.3.4-.5.5-.9.1-.9-1.5-1.3-1.6-.4zm-1.2-.4c-.3-.6-1.1-.8-1.7-.9-.8-.2-1.7-.2-2.4.2-.8.4-.3 1.6.6 1.4.4-.1.8-.1 1.2-.1.2 0 .4.1.6.1.1 0 .3.2.3.1.5.8 1.8 0 1.4-.8z"/><path class="st2" d="M64.3 152c-1.1.2-2.5.6-2.7 1.8-.2.7.7 1.3 1.3.7.5-.5 1.2-.7 1.9-.9 1-.3.6-1.9-.5-1.6z"/><path class="st2" d="M65.7 154.3c-.9-.1-2-.2-2.8.4-.5.4-.1 1.2.5 1.2.7 0 1.3-.3 2-.2 1 .2 1.2-1.3.3-1.4zm8.6 2.8c0 .8-.1 1.5-.2 2.3-.1.9 1.4 1.1 1.6.2.2-.8.2-1.7.2-2.5.1-1-1.6-1-1.6 0zm-2 .1l-1.2 1.8c-.4.8.6 1.7 1.3 1 .6-.6.9-1.2 1.3-2 .5-.9-.8-1.7-1.4-.8z"/><path class="st2" d="M70.8 157.6c-.3.5-.7.9-1 1.4-.5.8.7 1.5 1.3.8.3-.4.7-.9 1-1.4.5-.8-.8-1.6-1.3-.8zm-1.6-1.2c-1.1 1.2-2.3 2.4-3 3.9-.4.7.6 1.6 1.2.9 1.2-1.2 2-2.6 3-3.9.6-.6-.6-1.5-1.2-.9z"/><path class="st2" d="M65.9 158.5c-.9 1.1-1.6 2.2-2.1 3.4-.4.8 1.1 1.4 1.5.6.6-1.1 1.2-2.2 2-3.2.6-.8-.7-1.6-1.4-.8z"/><path class="st2" d="M63 159.5c-.5.6-.9 1.3-1.2 2-.3.7-.7 1.4-.8 2.1-.2.9 1 1.4 1.6.7.4-.5.6-1.2.8-1.8.3-.7.6-1.5 1-2.1.6-.9-.7-1.6-1.4-.9z"/><path class="st2" d="M61.7 160c-1.3 1.4-2.4 3.2-2.9 5.1-.2.9 1 1.4 1.5.6 1.1-1.5 1.4-3.3 2.6-4.8.5-.6-.6-1.5-1.2-.9zm-4.9.2c-.9 1-1.7 2.2-2.1 3.5-.2.7.8 1.3 1.3.8 1-.9 1.6-2.3 2.1-3.4.4-.8-.8-1.5-1.3-.9z"/><path class="st2" d="M55.8 160c-1.2.6-2.1 1.7-2.8 2.7-.5.6.4 1.5 1.1 1.1 1.1-.7 1.5-1.9 2.5-2.7.8-.5-.1-1.5-.8-1.1zm-1.9-1.4c-1.7.8-2.8 2.6-3.8 4.1-.5.7.5 1.7 1.2 1.2 1.5-1.1 2.1-2.9 3.5-4 .7-.7-.1-1.7-.9-1.3zm-3.6.6c-1.7.2-2.4 1.8-3.2 3-.6.8.7 1.7 1.4 1 .8-.8 1.2-2.1 2.3-2.6.6-.3.4-1.5-.5-1.4zm-3-.9c-1.2 1.2-2 2.6-2.6 4-.4.9 1.1 1.5 1.6.7.8-1.2 1.2-2.5 2.1-3.6.8-.7-.3-1.9-1.1-1.1zm-3.6 2c-.9.6-1.8 1.4-2.1 2.4-.2.7.8 1.4 1.3.8.6-.7 1.1-1.3 1.8-1.9.9-.6-.2-1.9-1-1.3zm12.2-4.2c-.1.9-.5 1.6-.6 2.5-.2.8.9 1.3 1.4.6.7-.9.8-2.2.6-3.2-.1-.9-1.3-.6-1.4.1zm-1.2-2c-.4.8-1.1 1.4-1.5 2.2-.4.8.5 1.4 1.2.9.8-.6 1.4-1.6 1.8-2.5.4-.8-1.1-1.4-1.5-.6z"/><path class="st2" d="M53.8 152.9c-1.1.3-2.1 1.1-2.8 2-.4.6.4 1.4 1 1 .8-.5 1.3-1.4 2.3-1.7.8-.3.3-1.5-.5-1.3zm-3.1-1.4c-.7.2-1.2.5-1.6 1-.6.6.1 1.5.9 1.2.5-.2.9-.5 1.3-.7.9-.4.3-1.7-.6-1.5zm-3-1.3c-1 .1-1.8.6-2.3 1.4-.6.7.6 1.5 1.2.9.5-.4.9-.7 1.5-.8 1-.3.6-1.7-.4-1.5zm-3.4-.4c-.3.1-.5.3-.6.6-.4.7.5 1.4 1.2.9.1 0 .2-.1.3-.1.8-.5 0-1.8-.9-1.4z"/><path class="st2" d="M47.3 150.7c1.4-.8 2.7-1.8 3.9-2.8.7-.5-.2-1.5-.9-1.2-1.4.7-2.8 1.8-3.9 2.8-.6.6.1 1.6.9 1.2zm4.4-.7c-.2-.1-.1 0-.3.2-.1.2-.2.4-.4.5-.6.8.6 1.5 1.3 1 .6-.4 1.1-.9 1.7-1.2l-1.1-1.1c-.9 1.5.2 2.7 1.9 2.6-.3-.3-.5-.7-.8-1-.2 1.2-.3 2.4.8 3.2.8.6 1.7-.6 1.1-1.3-.5-.5-.4-1.1-.3-1.7.1-.4-.4-.8-.8-.8h-.7c-.1 0 0 0 .1-.2.4-.6-.4-1.5-1.1-1.1-.7.4-1.3.9-1.9 1.3l1.1 1.1c.7-.9 1.3-2.2 0-2.9-.6-.3-1.4.9-.6 1.4z"/><path class="st2" d="M55.8 153.6c.2 1 .5 2 1.3 2.8.6.7 1.6-.1 1.2-.9-.4-.8-.7-1.5-1-2.3-.2-.9-1.8-.5-1.5.4zm2.5-2.7c-.3.1-.5-.1-.8-.2-.6-.2-1.3.6-.9 1.1.5.7 1.3.8 2.1.6 1-.3.6-1.6-.4-1.5zm-2.3-2.4c-.3.1-.3.2-.1.2-.2 0-.3-.1-.5-.1-.2.5-.3 1.1-.5 1.6.3 0 .5.1.8-.1.5-.3.6-.9.2-1.3-.2-.3-.7-.4-1-.6-.3-.2-.6-.6-1.1-.6-.5 0-1 .4-.8.9l1.5-.6c-.4-.6-.9-1-1.2-1.6-.3-.6-.9-.7-1.4-.7.3.3.5.6.8 1 .1-.2.1-.5.1-.7 0-.7-.9-.9-1.3-.4-.1.2-.2.3-.3.5-.3.5 0 1.1.7 1.2.1 0 .3.5.4.6.3.4.7.8 1 1.2.6.7 1.7-.2 1.3-.9-.2.4-.3.7-.5 1.1-.4.1-.7-.1-.3.1.1.1.2.1.4.2.1.1.4.5.3.2.2-.3.4-.7.6-1 .2 0 .5.1.7.1-1-.5-1.9.8-.9 1.5.9.6 1.6.5 2.4-.2.6-.9-.4-2.2-1.3-1.6z"/><path class="st2" d="M52.2 144.8c-.8-.1-1.4.1-2 .6-.7.6.3 1.5 1 .9.3-.3.6-.5 1-.4.8 0 .7-1 0-1.1z"/><path class="st2" d="M49.7 143.9c-.4.1-.7.1-1.1.1.2.4.5.8.7 1.2.5-1 .5-2.5-1.1-2.3-.8.1-.6 1.3.2 1.3.3.1.3 0-.1-.3 0 .1-.2.2-.2.3-.4.4-.3 1.1.3 1.3.7.2 1.5.1 2.2-.3.9-.4.1-1.7-.9-1.3zm8.7 19.6c-1-3-6.1.9-3.8 2.7 2.3 1.8 5.2-3.8 1.9-5.1-.7-.3-1.5.6-1 1.2.3.4.6.8.5 1.4-.1.3-.2.5-.3.7-.1.1-.3.3-.2.3.3-.1.6.2.6.4 0-.2.2-.4.3-.5.2-.2.4-.4.6-.5.3-.2.1 0 .1 0 .3.6 1.6.2 1.3-.6z"/><path class="st2" d="M59.7 162.8c.5.1.9.5 1 1v.2h-.2c-.1 0-.1-.1 0 .1 0-.1-.1-.1 0 0v-.4c0 .2.1-.2.1-.2 0 .1.1-.2.1-.2.1-.1.1-.1.2-.1h-.2c.1 0 .1 0 0 0 .2.1.3.2.4.3.7.6 2-.1 1.4-1-.8-1.3-2.4-1.4-3.4-.2-.7.8-.9 2.3 0 3 1.2 1 3.2.3 3.4-1.2.2-1.4-1.1-2.7-2.5-2.7-.8.1-1.1 1.3-.3 1.4z"/></svg>