<svg id="Layer_1" xmlns="http://www.w3.org/2000/svg" viewBox="0 0 300 300"><style>.st1{fill:#99d9ac}.st2{fill:none;stroke:#00a550;stroke-miterlimit:10}.st3{fill:#c1e8cc}.st3,.st4{stroke:#00a550;stroke-miterlimit:10}.st4,.st5{fill:#00a550}.st6{fill:#fff}.st8{fill:#007237}</style><circle cx="149.8" cy="150.4" r="145" fill="#c1e8cc"/><circle class="st1" cx="75.4" cy="30.4" r="20.8"/><circle class="st1" cx="233.2" cy="271.7" r="10.4"/><path class="st2" d="M14.9 179.5l51.6.6m172.3 2.9h50.4"/><path class="st3" d="M46.2 135.9H59V179H46.2z"/><path transform="matrix(.9999 .01715 -.01715 .9999 2.481 -.773)" class="st4" d="M43.9 141h4.9v6.6h-4.9z"/><path transform="matrix(.9999 .01715 -.01715 .9999 2.484 -.886)" class="st4" d="M50.4 141.1h4.9v6.6h-4.9z"/><path transform="matrix(.9999 .01715 -.01715 .9999 2.622 -.77)" class="st4" d="M43.7 149.2h4.9v6.6h-4.9z"/><path transform="matrix(.9999 .01715 -.01715 .9999 2.625 -.882)" class="st4" d="M50.3 149.3h4.9v6.6h-4.9z"/><path transform="matrix(.9999 .01715 -.01715 .9999 2.763 -.766)" class="st4" d="M43.6 157.4h4.9v6.6h-4.9z"/><path transform="matrix(.9999 .01715 -.01715 .9999 2.766 -.879)" class="st4" d="M50.1 157.5H55v6.6h-4.9z"/><path transform="matrix(.9999 .01715 -.01715 .9999 2.904 -.762)" class="st4" d="M43.4 165.6h4.9v6.6h-4.9z"/><path transform="matrix(.9999 .01715 -.01715 .9999 2.907 -.875)" class="st4" d="M50 165.7h4.9v6.6H50z"/><path class="st3" d="M26.7 129.1h19.4V179H26.7z"/><path class="st5" d="M29.1 133.3h6.3v8.4h-6.3zm8.4 0h6.3v8.4h-6.3zm-8.4 10.5h6.3v8.4h-6.3zm8.4 0h6.3v8.4h-6.3zm-8.4 10.5h6.3v8.4h-6.3zm8.4 0h6.3v8.4h-6.3zm-8.4 10.5h6.3v8.4h-6.3zm8.4 0h6.3v8.4h-6.3z"/><ellipse transform="matrix(1 -.00448 .00448 1 -.626 .98)" class="st1" cx="218.6" cy="140.3" rx="52" ry="37.5"/><path class="st1" d="M141.5 92c26.6-.1 60.7 16.5 60.8 42.7s-27.1 47.3-53.7 47.4-42.5-20.8-42.6-47 8.9-42.9 35.5-43.1z"/><ellipse class="st1" cx="151.2" cy="245.1" rx="75.4" ry="8.1"/><path class="st5" d="M140.7 23.5c1.2-.4 2.3-.5 3.5-.5 1.2 0 2.3.1 3.5.5-1.2.4-2.3.5-3.5.5-1.1 0-2.3-.1-3.5-.5z"/><path class="st5" d="M144.3 20c.1 1 .3 2 .4 2.9 0 .5.2 1 .1 1.5s-.2 1-.5 1.5h-.1c-.3-.5-.4-1-.4-1.5-.1-.5.1-1 .1-1.5 0-1 .1-2 .4-2.9zm35.9 79.8c1.2-.4 2.3-.5 3.5-.5 1.2 0 2.3.1 3.5.5-1.2.4-2.3.5-3.5.5-1.2 0-2.4-.1-3.5-.5z"/><path class="st5" d="M183.7 94.2c.1 1.6.3 3.1.4 4.7 0 .8.2 1.6.1 2.3-.1.8-.2 1.6-.4 2.3h-.1c-.3-.8-.4-1.6-.5-2.3-.1-.8.1-1.6.1-2.3.1-1.6.2-3.1.4-4.7z"/><path class="st2" d="M228.3 134.3h35.4m-41.2 6.9h35.4m-7.5 49.9h20.8"/><path class="st5" d="M133.4 74.9c1.2-.4 2.3-.5 3.5-.5 1.2 0 2.3.1 3.5.5-1.2.4-2.3.5-3.5.5-1.2 0-2.3-.1-3.5-.5z"/><path class="st5" d="M137 69.3c.1 1.6.3 3.1.3 4.7 0 .8.2 1.6.1 2.3-.1.8-.2 1.6-.4 2.3h-.1c-.3-.8-.4-1.6-.4-2.3-.1-.8.1-1.6.1-2.3.1-1.6.2-3.1.3-4.7h.1z"/><circle class="st1" cx="167" cy="44.3" r="10.4"/><path class="st5" d="M105.9 41.8c1.2-.4 2.3-.5 3.5-.5 1.2 0 2.3.1 3.5.5-1.2.4-2.3.5-3.5.5-1.1 0-2.3-.1-3.5-.5z"/><path class="st5" d="M109.5 36.2c.1 1.6.3 3.1.3 4.7 0 .8.2 1.6.1 2.3-.1.8-.2 1.6-.5 2.3h-.1c-.3-.8-.4-1.6-.4-2.3-.1-.8.1-1.6.1-2.3.1-1.6.2-3.1.5-4.7zm-19.2 69.1c1.2-.4 2.3-.5 3.5-.5 1.2 0 2.3.1 3.5.5-1.2.4-2.3.5-3.5.5-1.2 0-2.3-.1-3.5-.5z"/><path class="st5" d="M93.8 99.7c.1 1.6.3 3.1.3 4.7 0 .8.2 1.6.1 2.3-.1.8-.2 1.6-.4 2.3h-.1c-.3-.8-.4-1.6-.5-2.3-.1-.8.1-1.6.1-2.3.2-1.6.3-3.1.5-4.7zm111.3-66.2h-26.5c-2.3 0-4.1 1.9-4.1 4.1v4.2h23.7c3 0 5.5 2.5 5.5 5.5v9.1h1.4c2.3 0 4.1-1.9 4.1-4.1V37.6c0-2.3-1.9-4.1-4.1-4.1z"/><path class="st3" d="M198.1 43.2h-26.5c-2.3 0-4.1 1.9-4.1 4.1V62c0 2.3 1.9 4.1 4.1 4.1h4.2v7c0 .3.2.5.4.6h.3c.2 0 .4-.1.5-.2l6.8-7.4h14.4c2.3 0 4.1-1.9 4.1-4.1V47.3c-.1-2.2-1.9-4.1-4.2-4.1zm-22.3 7h9.7c.4 0 .7.3.7.7s-.3.7-.7.7h-9.7c-.4 0-.7-.3-.7-.7s.3-.7.7-.7zm18.8 9.7h-18.8c-.4 0-.7-.3-.7-.7 0-.4.3-.7.7-.7h18.8c.4 0 .7.3.7.7 0 .4-.3.7-.7.7zm0-4.1h-18.8c-.4 0-.7-.3-.7-.7 0-.4.3-.7.7-.7h18.8c.4 0 .7.3.7.7 0 .3-.3.7-.7.7z"/><path class="st5" d="M206.3 60.4c-.1-.4-.5-.7-.9-.7l-3.3-.5-1.5-3.1c-.2-.4-.6-.6-1-.6s-.8.2-1 .6l-1.5 3.1-3.4.5c-.4 0-.7.3-.9.7-.1.4 0 .8.3 1.1l2.5 2.3-.6 3.3c-.1.4.1.8.4 1 .3.3.8.3 1.1.1l3-1.6 3 1.6c.4.2.8.2 1.1-.1.3-.2.5-.6.4-1l-.6-3.3 2.4-2.3c.5-.3.6-.7.5-1.1zm23 0c-.1-.4-.5-.7-.9-.7l-3.4-.5-1.5-3.1c-.2-.4-.6-.6-1-.6s-.8.2-1 .6l-1.5 3.1-3.3.5c-.4 0-.7.3-.9.7-.1.4 0 .8.3 1.1l2.4 2.3-.6 3.3c-.1.4.1.8.4 1 .3.3.8.3 1.1.1l3-1.6 3 1.6c.4.2.8.2 1.1-.1.3-.2.5-.6.4-1l-.6-3.3 2.5-2.3c.5-.3.6-.7.5-1.1z"/><path class="st5" d="M217.8 60.4c-.1-.4-.5-.7-.9-.7l-3.3-.5-1.5-3.1c-.2-.4-.6-.6-1-.6s-.8.2-1 .6l-1.5 3.1-3.3.5c-.4 0-.7.3-.9.7-.1.4 0 .8.3 1.1l2.4 2.3-.6 3.3c-.1.4.1.8.4 1 .3.3.8.3 1.1.1l3-1.6 3 1.6c.4.2.8.2 1.1-.1.3-.2.5-.6.4-1l-.6-3.3 2.4-2.3c.5-.3.6-.7.5-1.1z"/><path class="st3" d="M239.9 77.1v6.5c0 .6-.1 1.1-.3 1.7l-1.9 5.8c-.1.4-.5.7-1 .7l-15 .1c-.4 0-.8-.3-1-.7l-3.4-8.3c-.8-1.9-.4-3.9.9-5.5l2.3-2.7v-8.2c0-1.3 1-2.4 2.4-2.4.3 0 .6 0 .9.1.9.3 1.6 1.2 1.6 2.2v6.4c0-1.2.9-2.3 2.2-2.4 1.4-.1 2.6 1 2.6 2.4v2.1c0-1.3 1.1-2.4 2.4-2.4 1.4 0 2.4 1.1 2.4 2.4V77c0-1.4 1.3-2.6 2.8-2.4 1.2.3 2.1 1.4 2.1 2.5z"/><path class="st5" d="M220.2 91.9h18.2v4h-18.2zm20.7-31.5c-.1-.4-.5-.7-.9-.7l-3.4-.5-1.5-3.1c-.2-.4-.6-.6-1-.6s-.8.2-1 .6l-1.5 3.1-3.3.5c-.4 0-.7.3-.9.7-.1.4 0 .8.3 1.1l2.4 2.3-.6 3.3c-.1.4.1.8.4 1 .3.3.8.3 1.1.1l3-1.6 3 1.6c.4.2.8.2 1.1-.1.3-.2.5-.6.4-1l-.6-3.3 2.5-2.3c.5-.3.6-.7.5-1.1z"/><path class="st5" d="M252.5 60.4c-.1-.4-.5-.7-.9-.7l-3.4-.5-1.5-3.1c-.2-.4-.6-.6-1-.6s-.8.2-1 .6l-1.5 3.1-3.3.5c-.4 0-.7.3-.9.7-.1.4 0 .8.3 1.1l2.4 2.3-.6 3.3c-.1.4.1.8.4 1 .3.3.8.3 1.1.1l3-1.6 3 1.6c.4.2.8.2 1.1-.1.3-.2.5-.6.4-1l-.6-3.3 2.5-2.3c.5-.3.6-.7.5-1.1zm-27.4 104.7l-8.2-5.7-7.5-32.9c-1.8-7.9-8.8-13.5-16.9-13.5h-84.8c-8.1 0-15.1 5.6-16.9 13.5l-7.5 32.9-8.2 5.7c-5.4 3.8-8.7 10-8.7 16.6v29.6c0 5.5 4.5 10 10 10H224c5.5 0 10-4.5 10-10v-29.6c-.2-6.6-3.4-12.8-8.9-16.6z"/><path class="st6" d="M207.2 159.5H92.5l7.1-30.9c.8-3.7 4.1-6.2 7.8-6.2h85c3.8 0 7 2.6 7.8 6.2l7 30.9z"/><path d="M79.4 186.7c0 5.6 5.9 10.2 13.1 10.2 7.3 0 13.1-4.6 13.1-10.2H79.4zm114.6 0c0 5.6 5.9 10.2 13.1 10.2s13.1-4.6 13.1-10.2H194z" fill="#ffd117"/><path class="st8" d="M230.1 206.8H69.6c-3.9 0-7.1 3.1-7.1 7s3.2 7 7.1 7h160.6c3.9 0 7.1-3.1 7.1-7-.1-3.9-3.2-7-7.2-7z"/><path d="M75.3 221.3v17.2c0 2.3 1.9 4.1 4.1 4.1h16c2.3 0 4.1-1.9 4.1-4.1v-17.2m100.6 0v17.2c0 2.3 1.9 4.1 4.1 4.1h16c2.3 0 4.1-1.9 4.1-4.1v-17.2m-47.2-.5v2.3c0 5.1-4.1 9.3-9.3 9.3h-30.1c-5.1 0-9.3-4.1-9.3-9.3v-2.3" fill="#504b5a"/><path class="st6" d="M207.2 159.5h-39.5l-37.1-37.1h61.7c3.8 0 7 2.6 7.8 6.2l7.1 30.9z"/><path class="st8" d="M119.6 183.8H184v5.1h-64.4zm0 8.9H184v5.1h-64.4z"/><path class="st5" d="M70.4 72.1c.8-.4 1.7-.5 2.5-.5s1.7.1 2.5.5c-.8.4-1.7.5-2.5.5-.8-.1-1.6-.1-2.5-.5z"/><path class="st5" d="M73 68c.1 1.1.3 2.3.3 3.4 0 .6.2 1.1.1 1.7-.1.6-.2 1.1-.4 1.7h-.1c-.3-.6-.4-1.1-.4-1.7-.1-.6.1-1.1.1-1.7.1-1.1.2-2.3.3-3.4h.1zm-36.7 43.3c1.2-.4 2.3-.5 3.5-.5 1.2 0 2.3.1 3.5.5-1.2.4-2.3.5-3.5.5-1.2 0-2.3-.1-3.5-.5z"/><path class="st5" d="M39.8 105.7c.1 1.6.3 3.1.3 4.7 0 .8.2 1.6.1 2.3-.1.8-.2 1.6-.4 2.3h-.1c-.3-.8-.4-1.6-.5-2.3-.1-.8.1-1.6.1-2.3.2-1.6.3-3.1.5-4.7z"/></svg>